<?xml version="1.0" standalone="no"?>
<!DOCTYPE svg PUBLIC "-//W3C//DTD SVG 20010904//EN"
 "http://www.w3.org/TR/2001/REC-SVG-20010904/DTD/svg10.dtd">
<svg version="1.0" xmlns="http://www.w3.org/2000/svg"
 width="640.000000pt" height="640.000000pt" viewBox="0 0 640.000000 640.000000"
 preserveAspectRatio="xMidYMid meet">
<metadata>
Created by potrace 1.14, written by Peter Selinger 2001-2017
</metadata>
<g transform="translate(0.000000,640.000000) scale(0.100000,-0.100000)"
fill="#000000" stroke="none">
<path d="M4575 4940 c-3 -5 -1 -10 4 -10 6 0 11 5 11 10 0 6 -2 10 -4 10 -3 0
-8 -4 -11 -10z"/>
<path d="M2035 4882 c-1 -2 -133 -5 -291 -7 -475 -7 -891 -20 -964 -30 -19 -2
-82 -7 -140 -11 -105 -5 -146 -19 -156 -50 -2 -8 -7 -22 -11 -31 -3 -10 -7
-21 -8 -25 -2 -5 -3 -9 -5 -10 -1 -2 -3 -12 -4 -23 -2 -11 -15 -69 -30 -129
-15 -60 -25 -115 -22 -121 2 -7 1 -16 -4 -21 -4 -5 -10 -25 -13 -44 -3 -19 -8
-44 -10 -55 -3 -11 -10 -56 -17 -100 -6 -44 -13 -91 -15 -105 -6 -32 -17 -144
-20 -191 -1 -19 -4 -40 -8 -45 -3 -6 -9 -26 -12 -44 -7 -40 -14 -52 -25 -45
-5 3 -11 1 -15 -5 -4 -6 -10 -8 -15 -5 -22 14 -36 -52 -35 -164 1 -113 1 -114
30 -137 16 -12 32 -21 37 -18 4 3 8 -2 8 -10 0 -8 -5 -18 -10 -21 -6 -4 -8
-10 -5 -15 3 -5 1 -28 -4 -52 -11 -47 -16 -79 -26 -146 -5 -35 -3 -47 12 -58
10 -8 14 -14 8 -13 -38 5 -77 -4 -93 -21 -17 -18 -21 -60 -13 -136 2 -20 79
-129 110 -157 18 -15 29 -32 26 -38 -4 -5 -6 -58 -6 -117 0 -97 2 -128 16
-242 10 -88 91 -308 117 -318 4 -2 8 -13 8 -23 0 -14 4 -18 13 -13 7 5 6 1 -3
-10 -13 -17 -14 -17 -21 1 -3 10 -4 22 -1 27 3 5 0 6 -6 2 -7 -4 -8 -15 -3
-29 9 -23 13 -24 46 -11 18 7 19 6 5 -12 -8 -10 -11 -16 -6 -12 5 4 22 0 38
-8 16 -8 32 -12 37 -10 9 6 33 -17 28 -25 -1 -2 4 2 11 10 11 14 17 8 13 -13
-1 -5 5 -4 13 4 14 10 16 10 17 -6 0 -11 3 -14 6 -6 2 6 9 12 14 12 6 0 8 -4
4 -9 -3 -6 7 -6 26 -1 24 7 28 6 20 -3 -7 -9 -7 -17 1 -27 8 -12 9 -12 4 3 -3
9 -2 17 2 18 4 0 15 2 25 4 20 4 22 -5 4 -25 -8 -10 -5 -9 8 1 11 9 27 20 35
24 13 8 13 6 2 -7 -11 -14 -10 -16 7 -11 12 3 21 10 21 15 0 6 6 6 14 -1 8 -7
16 -8 18 -4 3 4 3 2 1 -6 -2 -8 2 -11 12 -7 8 3 15 1 15 -3 0 -5 7 -11 15 -15
13 -5 14 -2 4 17 -11 19 -10 20 3 10 8 -7 18 -9 23 -5 4 4 4 -4 1 -18 -6 -19
-5 -21 3 -10 8 11 11 12 11 2 0 -7 4 -10 10 -7 5 3 10 0 10 -7 0 -11 2 -11 9
0 7 11 11 11 23 -2 8 -8 24 -13 34 -12 10 2 27 -3 37 -12 12 -11 17 -12 17 -2
0 10 3 10 15 0 8 -6 20 -10 27 -7 8 4 7 6 -4 6 -12 1 -16 7 -12 18 5 15 4 16
-5 3 -13 -19 -14 0 -1 20 8 13 11 11 16 -7 3 -12 15 -25 26 -29 17 -5 18 -8 7
-16 -10 -7 -8 -8 8 -3 16 4 25 0 32 -14 11 -19 15 -20 59 -6 19 6 20 10 10 24
-10 13 -9 13 8 -1 16 -14 23 -15 33 -5 10 9 11 8 5 -7 -5 -13 -4 -17 4 -12 6
3 13 2 17 -4 3 -6 18 -8 31 -6 22 4 24 3 13 -10 -10 -13 -15 -13 -34 0 -19 12
-22 12 -22 0 0 -8 3 -12 5 -9 3 3 16 -2 30 -11 13 -9 21 -11 17 -4 -5 9 -1 10
16 5 19 -5 21 -4 9 5 -13 10 -13 11 0 7 8 -2 14 -11 14 -20 -1 -9 2 -14 7 -11
8 5 13 -9 10 -28 0 -5 3 -8 8 -8 5 0 8 11 7 24 0 13 -4 22 -7 20 -3 -1 -6 3
-6 9 0 7 10 14 21 15 17 1 18 -1 6 -8 -8 -5 -10 -10 -5 -11 6 -1 15 -2 20 -3
6 0 11 -5 13 -11 2 -5 10 -14 18 -18 12 -7 13 -12 3 -25 -11 -14 -11 -15 1 -5
16 14 34 18 26 5 -7 -12 47 -10 60 2 8 7 9 19 3 34 -6 15 -5 21 1 17 6 -3 10
-13 10 -21 0 -9 5 -12 11 -8 6 3 3 -6 -7 -21 -21 -32 -26 -55 -13 -55 6 0 9 7
7 16 -2 10 3 19 11 22 9 3 11 0 6 -9 -6 -11 -5 -12 5 -2 11 10 18 9 33 -5 10
-9 22 -17 26 -17 3 0 5 -5 3 -12 -2 -7 2 -13 8 -13 5 0 9 5 8 11 -2 6 3 14 11
17 9 3 12 0 9 -9 -4 -10 3 -14 23 -14 15 -1 26 1 24 4 -3 2 7 10 22 18 14 7
28 11 30 9 8 -8 -8 -27 -17 -21 -4 3 -16 -8 -26 -23 -13 -20 -13 -24 -2 -15 8
7 18 10 22 6 4 -4 4 0 0 10 -5 13 -2 16 9 11 10 -3 13 -12 10 -22 -4 -9 -3
-14 1 -10 4 3 9 14 11 25 1 10 8 17 14 15 6 -1 11 6 12 15 0 13 3 12 10 -6 9
-23 10 -23 37 -5 20 13 24 14 14 2 -10 -13 -9 -18 5 -29 15 -12 16 -12 10 6
-6 18 -6 19 6 3 11 -14 16 -15 27 -5 12 10 12 9 0 -6 -12 -16 -11 -19 8 -23
13 -4 19 -12 17 -25 -2 -10 -1 -18 3 -17 4 1 18 -4 31 -11 13 -7 21 -8 17 -3
-3 6 -2 13 3 17 5 3 14 -3 20 -12 9 -16 10 -16 8 4 -1 15 -7 20 -19 18 -12 -3
-16 0 -12 7 4 7 2 8 -5 4 -6 -4 -8 -12 -5 -18 4 -6 1 -9 -7 -6 -8 3 -14 13
-14 24 0 10 -9 22 -20 26 -17 6 -16 7 5 5 15 -2 24 -8 22 -16 -2 -8 3 -11 11
-8 8 3 20 0 26 -6 8 -8 11 -8 11 0 0 7 -4 14 -9 17 -10 6 -9 31 1 41 3 3 5 -5
4 -17 0 -13 4 -22 11 -21 7 2 10 -4 7 -15 -5 -14 -3 -14 10 2 9 11 16 15 16
10 0 -6 -5 -15 -12 -22 -9 -9 -9 -15 0 -24 15 -15 16 -31 0 -22 -7 4 -8 3 -4
-5 10 -16 29 -2 22 16 -4 9 -1 13 6 10 7 -2 12 -10 11 -16 -2 -6 2 -11 7 -11
6 0 10 5 10 11 0 8 6 7 17 -2 14 -12 16 -12 9 1 -4 9 -2 8 7 -2 15 -19 29 -14
20 8 -3 8 0 14 7 14 6 0 9 -4 6 -9 -3 -4 6 -13 19 -19 15 -7 26 -8 30 -2 11
17 25 11 22 -9 -1 -11 2 -20 7 -20 5 1 13 -5 18 -13 8 -10 9 -9 5 3 -4 12 0
15 19 11 13 -2 30 0 37 6 10 8 13 6 14 -11 2 -15 0 -18 -6 -9 -6 11 -11 10
-25 -3 -19 -19 -22 -32 -3 -18 6 5 25 10 40 11 42 3 51 11 32 32 -12 14 -13
20 -4 26 8 4 10 3 5 -4 -4 -6 2 -17 13 -24 20 -12 19 -13 -5 -29 -21 -14 -23
-17 -9 -23 9 -3 14 -2 11 3 -9 14 26 23 38 11 8 -8 7 -11 -3 -8 -8 2 -15 -7
-17 -22 -3 -21 -2 -22 7 -7 12 21 33 23 25 1 -3 -9 -2 -12 5 -9 5 4 7 14 5 23
-3 10 -1 24 5 32 9 13 10 13 8 0 -3 -27 1 -40 12 -40 6 0 8 9 4 23 -7 22 -7
22 8 2 12 -15 13 -23 4 -34 -9 -11 -9 -13 0 -8 6 4 13 4 16 0 2 -5 2 -2 1 5
-3 12 8 16 34 13 8 -1 20 6 28 16 13 16 13 15 3 -9 -12 -27 -28 -32 -41 -13
-4 5 -6 0 -6 -11 2 -21 19 -26 34 -11 4 4 17 7 28 7 18 0 19 2 6 11 -13 9 -12
10 3 5 9 -3 17 0 17 6 0 6 3 9 6 5 3 -3 0 -15 -8 -26 -8 -12 -17 -19 -20 -16
-2 3 -5 -2 -5 -10 0 -12 5 -11 22 5 12 11 25 17 28 13 7 -6 11 12 8 30 -1 5 3
6 8 2 6 -3 7 -13 4 -23 -6 -15 -5 -15 11 -3 15 12 17 12 14 0 -2 -8 4 -13 14
-13 10 1 15 -3 12 -8 -7 -11 24 -48 40 -48 6 0 3 5 -6 11 -10 5 -18 17 -18 26
0 15 2 14 13 -2 9 -11 19 -15 27 -10 9 5 11 4 6 -3 -5 -8 2 -12 19 -12 15 0
24 -4 20 -10 -3 -5 -2 -10 4 -10 5 0 11 5 13 11 2 5 11 7 21 3 15 -5 15 -9 5
-23 -11 -14 -11 -14 3 -3 18 14 99 12 99 -2 0 -5 7 -3 15 4 10 9 15 9 15 1 0
-7 13 -9 35 -6 24 3 33 1 29 -6 -4 -8 0 -7 14 0 15 8 22 8 25 -2 3 -6 6 -7 6
-2 1 8 81 12 101 4 3 -1 9 -1 14 0 4 1 16 -4 25 -11 13 -10 14 -10 4 2 -21 24
-14 31 12 14 15 -10 25 -12 25 -5 0 6 4 11 10 11 5 0 7 -8 3 -17 -4 -12 1 -10
16 7 12 14 19 19 15 11 -5 -11 -1 -13 20 -9 19 4 26 1 27 -11 0 -14 1 -14 7
-1 9 18 32 25 28 7 -1 -6 -1 -9 1 -4 3 4 18 7 34 7 20 0 28 -4 23 -12 -4 -7
-3 -8 4 -4 6 4 9 14 6 24 -4 10 -3 13 3 6 12 -16 65 -13 58 4 -3 7 0 10 6 7 6
-4 8 -13 5 -21 -3 -7 -1 -16 5 -19 5 -4 8 -1 7 6 -2 6 3 14 11 17 8 2 11 0 7
-6 -3 -6 7 -9 29 -6 24 2 33 -1 29 -8 -4 -7 -3 -8 5 -4 6 4 8 13 5 19 -4 7 -4
9 1 5 4 -4 15 -2 23 5 10 7 13 8 9 1 -4 -7 0 -17 8 -24 13 -11 14 -10 8 6 -6
17 -5 18 11 4 25 -20 46 -21 46 -3 0 13 -2 13 -17 2 -14 -12 -16 -12 -8 0 6
10 4 12 -5 6 -8 -5 -11 -4 -7 3 4 5 15 9 25 8 9 -2 21 2 25 8 6 7 7 4 3 -6 -4
-14 1 -18 24 -19 17 -1 38 -2 48 -2 9 -1 20 -6 24 -12 5 -6 8 -5 8 4 0 11 3
11 17 0 13 -11 15 -11 9 -1 -10 16 24 13 37 -3 5 -5 6 1 2 15 l-6 25 20 -24
c12 -13 21 -18 21 -12 0 15 43 14 59 -1 11 -10 13 -10 7 0 -5 7 -1 12 9 12 10
0 13 -5 9 -12 -6 -10 -5 -10 7 -1 15 12 36 13 55 0 18 -11 24 4 12 27 -8 17
-8 19 2 9 7 -6 19 -9 26 -6 8 3 14 0 14 -7 0 -6 -4 -9 -8 -6 -5 3 -9 -2 -9
-10 0 -10 4 -11 11 -4 14 14 29 13 20 -2 -4 -7 -3 -8 4 -4 9 5 9 13 2 26 -16
30 -12 31 14 5 16 -16 31 -22 42 -18 12 4 15 3 10 -5 -11 -18 0 -14 15 5 12
14 12 15 1 9 -11 -7 -12 -4 -3 11 6 11 7 24 3 28 -4 5 -2 5 5 1 7 -4 10 -13 6
-21 -4 -11 0 -14 13 -9 16 6 17 5 7 -7 -7 -7 -13 -17 -13 -21 0 -8 29 13 62
47 l20 20 -11 -22 c-8 -16 -8 -23 -1 -23 6 0 9 -4 5 -9 -3 -5 0 -13 6 -17 8
-5 9 -3 4 6 -6 10 -4 12 8 7 11 -4 14 -2 11 7 -7 18 12 30 22 15 5 -8 3 -9 -6
-4 -9 5 -11 4 -6 -4 6 -9 11 -9 21 -1 9 8 15 8 20 0 3 -5 1 -10 -4 -10 -6 0
-11 -5 -11 -11 0 -8 4 -8 15 1 8 6 20 8 26 4 8 -4 9 -3 5 4 -4 7 -2 12 5 12 8
0 8 5 -2 18 -7 9 -9 14 -5 10 5 -4 16 -2 24 5 13 10 14 9 7 -3 -5 -8 -10 -22
-10 -32 -1 -13 2 -15 15 -8 10 5 21 6 25 2 4 -4 4 4 0 18 -7 24 -7 24 8 5 8
-11 13 -23 11 -27 -3 -5 0 -8 6 -8 7 0 10 6 7 13 -3 8 -1 20 4 28 6 10 9 10 9
2 0 -7 6 -13 14 -13 8 0 16 -5 18 -12 3 -9 6 -9 12 0 4 8 -1 15 -15 20 l-23 9
22 5 c12 3 21 3 20 -1 -2 -19 4 -24 13 -11 9 13 10 13 6 -2 -6 -18 29 -33 40
-16 3 6 1 8 -5 4 -6 -3 -14 -1 -18 5 -4 7 -3 9 4 5 6 -3 13 -2 17 4 10 16 28
12 21 -5 -3 -8 -9 -23 -12 -32 -5 -17 -5 -17 5 -1 8 12 22 16 45 14 26 -3 33
0 29 10 -6 17 -15 18 -30 3 -8 -8 -13 -8 -17 0 -4 6 -6 11 -4 12 30 7 46 5 62
-9 11 -9 16 -11 12 -4 -4 7 -1 12 9 12 10 0 13 5 9 12 -5 9 -2 9 9 -1 14 -11
17 -11 17 0 0 9 3 10 8 4 8 -13 22 -13 41 -1 10 6 18 3 28 -9 7 -11 13 -13 13
-7 0 7 4 12 10 12 12 0 9 -22 -5 -32 -6 -5 -6 -8 2 -8 6 0 15 5 18 10 5 8 11
7 21 -1 11 -9 15 -8 20 5 4 9 4 20 0 23 -3 4 -6 -1 -6 -11 0 -9 -5 -14 -10
-11 -6 4 -7 12 -3 18 4 7 -2 5 -13 -3 -18 -14 -18 -14 -5 3 8 9 16 15 19 12 3
-3 12 5 19 17 l14 23 -7 -25 c-6 -23 -6 -24 11 -10 11 9 16 10 11 3 -4 -8 -1
-13 8 -13 9 0 13 6 10 13 -3 8 1 19 9 25 11 9 14 8 14 -3 0 -8 -4 -12 -9 -9
-12 8 -9 -9 5 -27 13 -17 52 -35 42 -20 -8 13 12 24 27 15 33 -20 60 -1 33 23
-4 4 -5 2 -1 -4 4 -7 3 -13 -2 -13 -11 0 -25 30 -18 37 2 2 19 -5 37 -16 19
-12 28 -21 22 -21 -7 0 -13 -5 -13 -12 0 -6 11 -1 24 11 14 13 26 18 30 13 3
-6 0 -12 -6 -15 -7 -2 -10 -7 -7 -11 3 -3 14 2 25 12 10 9 28 19 38 20 17 3
18 1 7 -11 -9 -12 -9 -17 0 -23 7 -4 9 -3 5 4 -8 14 24 32 50 28 10 -2 18 -9
16 -16 -1 -6 3 -8 9 -5 8 5 8 10 0 18 -17 17 -13 31 5 16 13 -10 17 -10 24 1
11 18 -8 43 -24 33 -7 -5 -5 -9 7 -11 9 -2 15 -8 11 -13 -3 -5 -11 -6 -17 -2
-22 14 -36 11 -30 -5 3 -10 1 -13 -4 -7 -11 14 -36 18 -28 5 3 -5 2 -10 -3
-10 -5 0 -9 15 -10 33 0 29 1 30 9 9 5 -15 13 -21 21 -16 9 6 9 9 0 12 -7 2
-12 11 -12 19 0 11 5 9 18 -7 17 -21 19 -21 32 -4 13 16 13 17 -2 11 -10 -3
-20 -2 -24 4 -11 19 5 22 31 5 14 -9 25 -12 25 -7 0 5 -4 13 -10 16 -5 3 -10
10 -10 16 0 5 8 1 18 -8 11 -11 15 -23 11 -29 -6 -6 4 -17 26 -27 29 -14 33
-14 28 -2 -3 8 0 15 6 15 6 0 11 -5 11 -12 0 -6 10 -1 22 12 13 14 23 19 26
12 2 -7 8 -12 13 -12 6 0 8 4 4 9 -3 5 -1 12 5 16 6 4 7 11 4 17 -4 7 -2 8 5
4 6 -4 9 -16 6 -27 -4 -12 -2 -19 6 -19 7 0 9 3 6 7 -4 3 2 13 13 20 17 12 24
12 35 3 11 -9 15 -9 15 -1 0 6 -5 11 -11 11 -5 0 -7 5 -3 12 5 8 11 6 20 -7
12 -16 13 -15 12 6 -1 13 -6 30 -11 37 -12 16 5 16 21 0 9 -9 15 -9 25 1 10
11 9 13 -5 8 -21 -7 -34 9 -14 16 8 3 25 4 38 1 12 -2 16 -1 8 2 -8 4 -25 17
-39 30 -13 12 -30 20 -37 17 -8 -3 -14 0 -14 7 0 6 4 9 8 6 5 -3 20 1 33 8 14
7 33 12 42 10 9 -1 17 1 17 5 0 4 17 13 37 20 81 30 191 116 255 201 55 74 99
174 123 277 14 59 14 237 0 304 -6 33 -4 41 25 70 55 57 64 78 67 148 4 95
-20 146 -80 177 -30 16 -57 18 -161 10 -55 -4 -74 -1 -92 12 -12 9 -32 24 -44
32 -12 8 -29 21 -36 28 -8 7 -14 11 -14 7 0 -3 -13 3 -29 14 -15 11 -41 25
-56 31 -37 14 -28 21 16 11 36 -8 163 -6 214 3 17 3 55 8 85 12 30 3 62 10 71
15 22 11 25 95 4 106 -9 5 -18 19 -20 31 -3 12 -8 32 -11 45 -3 12 -7 30 -8
39 -1 10 -5 21 -9 24 -4 4 -7 16 -7 26 0 11 -4 16 -10 13 -5 -3 -10 1 -10 9 0
19 -59 78 -71 70 -5 -3 -9 -1 -9 4 0 5 -6 9 -12 10 -7 0 -63 11 -125 23 l-111
23 -28 70 c-30 77 -49 98 -77 90 -11 -4 -39 8 -73 30 -29 20 -56 36 -60 36 -3
0 -28 11 -56 25 -27 13 -46 20 -42 14 4 -7 0 -7 -12 0 -24 13 -167 56 -219 66
-22 5 -47 10 -55 12 -8 2 -23 4 -32 5 -10 1 -18 5 -18 8 0 3 -10 5 -22 6 -13
0 -41 4 -63 8 -22 5 -49 10 -60 12 -11 2 -40 8 -65 15 -25 6 -56 12 -70 14
-113 14 -136 18 -143 29 -6 8 -10 8 -13 0 -5 -13 -44 -7 -44 6 0 5 -3 15 -6
23 -3 10 3 16 20 19 24 5 31 -2 27 -25 -1 -5 3 -5 9 -2 6 4 9 13 6 20 -2 7 0
17 6 23 5 5 11 47 12 93 2 63 -3 98 -18 142 -18 52 -23 57 -50 58 -59 3 -131
2 -144 -2 -14 -5 -10 -12 -133 216 -88 163 -135 241 -169 277 -21 23 -87 50
-130 54 -123 12 -301 24 -400 29 -47 2 -112 6 -145 9 -157 13 -260 18 -505 22
-146 2 -339 7 -430 9 -183 6 -172 6 -220 3 -20 -1 -41 1 -48 6 -7 4 -12 3 -12
-2 0 -4 -17 -7 -37 -5 -55 6 -164 9 -168 5z m-1295 -283 c0 -5 -5 -8 -11 -6
-6 1 -13 -3 -16 -9 -2 -6 3 -11 12 -11 8 0 15 4 15 9 0 5 10 4 21 -3 17 -9 20
-8 16 3 -2 7 -10 12 -16 11 -6 -2 -11 1 -11 6 0 4 19 7 43 6 23 -1 49 3 57 9
13 9 13 9 3 -5 -13 -16 -8 -29 9 -29 5 0 7 4 3 9 -3 5 -1 12 4 15 5 4 12 2 15
-3 4 -5 2 -12 -4 -16 -6 -4 -7 -11 -4 -17 4 -6 1 -16 -7 -22 -8 -6 -15 -18
-15 -26 -1 -8 -5 -24 -9 -35 -6 -17 -3 -16 15 5 l22 25 -16 -27 c-11 -19 -12
-28 -4 -30 8 -3 5 -11 -8 -24 -17 -17 -18 -22 -7 -33 8 -7 10 -18 5 -29 -5 -9
-8 -30 -7 -45 1 -26 0 -27 -12 -11 -7 10 -13 12 -13 6 0 -7 -11 -17 -25 -24
-13 -6 -22 -15 -19 -19 3 -5 15 -2 27 6 15 9 27 11 37 5 8 -5 10 -10 4 -10 -7
0 -10 -13 -9 -30 1 -16 -1 -27 -5 -25 -5 3 -7 -11 -5 -30 2 -20 -1 -33 -6 -30
-5 4 -9 1 -9 -4 0 -6 6 -11 13 -12 9 0 9 -2 -1 -6 -6 -2 -9 -10 -5 -16 4 -7
-1 -6 -10 2 -15 12 -17 11 -17 -3 0 -15 12 -21 34 -17 5 1 4 -5 -4 -13 -7 -9
-9 -16 -4 -16 5 0 0 -7 -10 -15 -14 -11 -16 -15 -5 -15 12 0 12 -2 -1 -10 -12
-8 -12 -10 -1 -10 8 0 11 -3 8 -7 -10 -9 -67 -11 -61 -1 8 12 -10 10 -24 -4
-9 -9 -12 -9 -12 0 0 7 -3 11 -7 11 -34 -5 -53 34 -25 51 16 9 16 9 1 10 -22
0 -44 -26 -29 -35 16 -10 12 -22 -12 -28 -22 -6 -41 9 -32 25 9 14 -10 9 -35
-9 -14 -9 -21 -11 -17 -5 4 7 2 12 -3 12 -6 0 -11 -6 -12 -12 0 -10 -2 -10 -6
0 -2 6 -9 12 -14 12 -6 0 -8 -4 -5 -8 3 -5 -1 -9 -9 -9 -12 0 -12 3 -2 16 10
12 9 14 -5 9 -14 -6 -15 -2 -8 22 4 16 5 32 2 36 -4 4 -1 4 6 0 8 -5 10 -16 6
-29 -6 -19 -5 -20 9 -8 9 7 15 17 12 21 -3 5 0 10 7 12 12 4 21 38 10 38 -4 0
-14 -5 -22 -10 -12 -8 -12 -10 -1 -10 8 0 12 -3 8 -6 -3 -3 -14 -1 -24 5 -10
6 -13 11 -6 11 6 0 10 8 8 18 -3 22 14 44 28 35 6 -4 8 0 4 10 -16 40 -19 52
-9 39 7 -11 10 -11 15 2 4 9 2 16 -3 16 -5 0 -7 12 -6 28 2 15 5 27 6 27 3 0
11 39 13 67 1 15 6 30 10 34 4 4 7 16 7 26 0 10 4 18 10 18 5 0 7 -8 3 -17 -5
-14 -3 -15 7 -6 7 6 18 9 24 7 6 -2 12 5 13 17 2 16 -1 19 -9 11 -12 -12 -41
-4 -32 9 3 5 -1 9 -8 9 -8 1 -6 6 6 15 10 8 22 12 26 10 5 -3 11 2 14 10 4 12
0 14 -19 9 -15 -4 -25 -2 -25 5 0 6 7 8 16 4 14 -5 15 -3 6 14 -13 23 -7 34
14 26 9 -3 13 0 11 8 -2 8 -2 11 0 7 3 -5 9 -8 14 -8 6 0 8 4 5 9 -3 5 8 8 25
7 16 -1 32 1 35 5 6 10 34 0 34 -12z m648 -35 c2 3 -1 12 -7 20 -15 17 -1 28
19 15 13 -7 13 -9 1 -9 -11 0 -9 -4 5 -15 21 -16 21 -16 -21 -20 -16 -1 -36 2
-44 9 -12 9 -13 8 -8 -7 4 -10 3 -16 -2 -12 -5 3 -13 1 -16 -5 -4 -6 -16 -8
-28 -4 -19 6 -20 5 -9 -9 9 -10 10 -17 2 -22 -6 -3 -7 -11 -4 -17 5 -7 2 -8
-6 -3 -10 6 -12 4 -7 -9 4 -10 3 -15 -3 -11 -6 3 -10 13 -10 22 0 18 -13 10
-16 -10 -1 -7 -5 -20 -9 -30 -6 -13 -3 -16 9 -11 9 3 13 11 9 17 -3 5 -1 7 5
4 5 -4 9 -15 7 -25 -2 -9 -4 -23 -4 -29 -1 -7 -6 -13 -11 -13 -7 0 -7 6 0 20
17 32 -3 23 -22 -10 l-17 -30 26 5 c20 3 23 1 15 -7 -8 -8 -8 -15 -2 -23 7 -9
5 -16 -5 -25 -18 -15 -20 -35 -3 -24 7 5 8 3 2 -7 -5 -8 -9 -18 -9 -24 0 -5
-9 -9 -19 -7 -13 2 -16 -1 -10 -10 4 -7 -2 -5 -14 6 -18 16 -22 16 -27 4 -3
-8 -12 -15 -20 -15 -10 0 -11 5 -4 18 11 22 12 32 1 25 -10 -6 -9 30 1 40 4 4
2 13 -4 20 -7 8 -6 14 2 20 7 4 9 3 5 -4 -3 -6 -2 -13 3 -16 5 -3 11 1 15 9 3
8 -3 19 -12 24 -14 8 -14 10 -2 11 13 0 13 1 0 10 -8 5 -10 10 -4 10 7 0 11
16 10 40 -1 22 2 40 6 40 4 0 8 -6 8 -12 0 -9 4 -8 10 2 13 21 12 30 -2 26 -7
-1 -10 -1 -5 1 4 3 7 9 7 14 0 6 -4 8 -9 5 -5 -4 -8 2 -6 11 2 10 4 22 4 26 1
5 8 1 17 -7 8 -9 21 -13 27 -9 8 5 8 8 -1 11 -19 6 -14 21 6 17 9 -1 16 -8 14
-14 -1 -6 5 -11 14 -11 8 0 13 4 10 8 -2 4 -1 14 5 22 7 13 9 13 10 0 1 -8 1
-18 0 -22 0 -5 5 -8 12 -8 8 0 14 7 14 15 0 8 -4 15 -9 15 -4 0 -8 5 -8 10 0
19 17 10 30 -15 9 -18 16 -22 21 -13 4 7 0 18 -9 25 -14 11 -14 13 -2 11 8 -2
21 -11 28 -20 7 -10 18 -18 24 -18 6 0 4 8 -5 18 -10 10 -17 22 -17 27 0 4 10
-4 21 -19 12 -15 24 -25 27 -22z m1713 32 c-10 -12 -9 -13 7 -9 15 4 19 0 18
-19 -1 -27 -21 -42 -39 -31 -17 11 -16 45 3 60 20 17 25 16 11 -1z m105 -11
c-3 -13 0 -27 5 -31 6 -3 8 -12 5 -20 -5 -14 18 -9 41 8 8 7 11 3 10 -11 -1
-16 -6 -20 -22 -16 -18 5 -18 5 -2 -5 12 -8 22 -8 35 -1 13 8 14 10 2 11 -13
0 -13 1 0 10 22 14 28 12 26 -7 0 -11 6 -17 17 -17 21 2 22 -6 2 -32 -11 -13
-13 -14 -9 -3 6 19 -17 31 -35 19 -9 -5 -10 -10 -2 -14 6 -4 11 -2 11 4 0 6 5
8 11 4 8 -4 7 -9 -2 -15 -12 -7 -11 -9 1 -10 8 -1 18 -1 23 0 4 0 7 -6 7 -14
0 -21 -6 -19 -44 16 -19 17 -36 29 -38 28 -6 -6 -47 35 -42 43 3 4 1 8 -3 8
-5 0 -9 16 -9 35 0 19 4 35 8 35 5 0 6 -11 4 -25z m82 20 c-2 -1 -14 -8 -27
-15 -19 -10 -22 -10 -16 2 6 10 5 11 -6 1 -17 -17 -30 -17 -24 0 3 6 21 12 40
13 19 0 34 0 33 -1z m32 -26 c0 -4 -10 -5 -22 -5 -13 1 -31 -7 -40 -18 -16
-20 -18 -20 -35 -3 -11 11 -13 17 -5 18 7 1 15 2 20 4 51 14 62 19 62 29 0 11
20 -13 20 -25z m30 21 c14 7 23 3 43 -21 24 -29 27 -66 4 -52 -6 4 -8 0 -4 -9
3 -9 0 -26 -7 -40 -7 -13 -11 -29 -8 -36 2 -6 -1 -12 -8 -12 -8 0 -8 -6 0 -21
9 -16 9 -20 -4 -17 -8 2 -15 0 -15 -4 -2 -22 0 -28 10 -28 5 0 7 6 3 13 -5 8
-2 7 10 -2 20 -17 6 -30 -30 -26 -15 1 -21 -2 -17 -11 3 -8 1 -14 -5 -14 -6 0
-9 8 -7 18 1 9 8 16 13 15 6 -2 9 4 6 12 -4 8 -11 12 -18 9 -6 -3 1 6 16 20
16 14 24 27 19 30 -5 3 -12 -1 -15 -10 -3 -8 -10 -13 -16 -9 -5 3 0 15 12 27
14 14 18 23 10 26 -9 3 -9 9 -1 24 6 11 17 17 24 14 8 -3 17 0 21 6 5 7 3 8
-5 3 -9 -5 -8 2 2 22 14 26 14 31 -5 53 -11 14 -17 19 -13 12 4 -7 1 -19 -5
-27 -9 -11 -9 -15 -1 -15 6 0 11 5 11 11 0 5 4 8 10 4 5 -3 7 -12 4 -20 -10
-25 -46 1 -39 28 5 17 4 19 -4 7 -6 -8 -8 -23 -5 -33 5 -16 3 -17 -15 -8 -11
6 -25 10 -32 9 -6 -2 -13 3 -14 10 -2 7 -1 8 2 2 3 -8 9 -7 19 1 11 9 14 8 14
-2 0 -11 2 -11 10 1 5 8 7 24 5 35 -3 11 -2 14 1 8 4 -9 11 -10 24 -3z m-517
-24 c43 1 48 -3 52 -54 2 -20 6 -59 10 -87 13 -91 16 -120 17 -165 1 -25 4
-47 8 -50 3 -3 -2 -13 -12 -23 -18 -17 -19 -17 -16 10 3 24 0 28 -21 25 -20
-2 -22 0 -11 13 7 9 22 13 34 10 16 -4 15 -2 -4 8 -14 6 -26 21 -28 32 -2 18
-2 19 11 3 12 -15 14 -8 14 52 0 63 -2 69 -20 67 -11 -1 -22 4 -25 12 -3 8 0
11 7 7 6 -4 19 -2 28 4 16 9 15 10 -6 8 -13 -2 -26 2 -28 8 -2 7 4 11 13 10
11 0 18 7 19 21 1 12 -3 19 -10 17 -6 -3 -11 5 -11 16 0 11 4 20 8 20 4 0 8 8
7 18 0 11 -2 12 -6 4 -4 -10 -8 -10 -21 0 -15 12 -16 11 -3 -4 15 -20 2 -25
-17 -6 -13 13 -42 20 -41 10 3 -20 -3 -28 -21 -28 -11 0 -18 5 -16 11 2 5 10
9 17 7 8 -2 10 0 6 4 -11 12 -38 14 -31 2 3 -5 -2 -8 -12 -6 -13 2 -19 -3 -18
-14 2 -18 -7 -23 -19 -12 -3 4 -2 14 3 24 6 12 5 17 -4 17 -9 0 -13 -10 -11
-24 1 -14 -2 -22 -9 -20 -6 2 -11 11 -11 20 0 8 -4 19 -8 24 -5 4 -8 4 -7 -2
5 -22 -1 -28 -12 -14 -7 8 -12 12 -11 10 1 -2 -6 -14 -16 -28 -14 -17 -18 -34
-14 -66 2 -23 5 -58 5 -77 0 -19 9 -48 21 -64 20 -28 20 -29 2 -42 -10 -8 -22
-14 -26 -14 -4 0 -10 -7 -13 -16 -5 -12 -1 -11 18 4 14 10 35 18 48 16 13 -1
29 -3 35 -3 7 -1 12 -10 10 -21 -4 -23 -17 -39 -17 -20 0 9 -6 8 -20 -5 -11
-10 -20 -13 -20 -7 0 6 9 17 21 25 20 14 19 15 -8 13 -27 -1 -90 -36 -66 -36
6 0 19 7 28 16 9 9 19 13 23 9 4 -4 -6 -18 -23 -31 -16 -13 -28 -24 -25 -25 3
-1 15 -3 28 -4 17 -2 20 1 11 11 -8 10 -6 13 10 11 14 -1 20 -6 16 -15 -2 -7
-1 -11 4 -8 5 3 11 -1 15 -9 6 -16 36 -10 36 7 0 6 -8 4 -17 -3 -15 -12 -16
-12 -10 4 4 10 3 16 -2 13 -5 -3 -11 1 -15 9 -6 17 -1 19 23 6 15 -9 17 -5 14
32 -6 81 -2 137 8 137 4 0 12 -6 18 -14 9 -10 8 -15 -4 -20 -8 -3 -15 -11 -15
-18 0 -9 3 -8 10 2 5 8 10 13 11 10 0 -3 2 -15 5 -27 4 -24 -11 -32 -19 -10
-3 6 -6 8 -6 2 0 -5 4 -17 9 -25 9 -13 11 -13 20 0 5 8 7 27 5 42 -4 20 0 30
14 38 26 13 27 13 28 -11 2 -17 -1 -18 -13 -9 -8 7 -14 9 -14 5 0 -4 10 -15
22 -24 12 -10 18 -23 14 -29 -10 -17 -26 -15 -20 2 3 8 1 17 -5 20 -5 4 -10
-2 -11 -11 -4 -91 -12 -119 -31 -108 -5 4 -9 1 -9 -5 0 -7 7 -9 16 -6 9 3 14
1 12 -5 -2 -6 -7 -10 -12 -9 -4 1 -14 -7 -22 -17 -7 -10 -14 -13 -14 -7 0 12
-7 14 -61 18 -44 4 -62 14 -55 32 3 7 2 16 -3 18 -4 3 -7 18 -6 33 1 15 -3 32
-9 36 -7 5 -2 7 11 4 15 -3 20 -1 16 9 -2 7 -10 11 -17 8 -16 -6 -15 64 0 74
11 8 10 49 -1 60 -5 4 -6 0 -3 -9 4 -9 1 -16 -6 -16 -6 0 -12 9 -12 19 0 10 6
18 13 18 7 0 13 5 13 11 0 5 -4 7 -10 4 -5 -3 -10 -1 -10 4 0 6 5 11 11 11 6
0 9 6 6 14 -3 8 -3 16 1 18 4 2 15 17 24 33 17 30 18 30 102 30 51 0 86 4 86
10 0 7 3 7 8 0 4 -6 24 -10 45 -9z m-1023 -12 c0 -8 5 -12 10 -9 6 4 8 10 6
14 -3 4 10 6 27 5 49 -3 50 -3 43 -19 -6 -17 -4 -18 19 -9 13 5 14 9 3 15 -9
6 -6 8 9 6 17 -1 19 -4 11 -14 -7 -9 -7 -13 1 -13 6 0 14 7 17 15 4 10 9 11
17 4 7 -5 20 -15 30 -22 27 -19 12 -46 -23 -42 -21 3 -27 0 -26 -13 1 -12 -6
-17 -27 -16 -16 1 -26 -3 -24 -10 3 -6 10 -10 17 -8 11 3 11 0 1 -12 -7 -8 -9
-21 -5 -27 4 -8 3 -9 -4 -5 -12 7 -16 -10 -13 -44 2 -13 1 -13 -8 0 -9 13 -11
13 -11 -2 0 -10 5 -18 12 -18 6 0 3 -7 -8 -15 -14 -11 -15 -14 -4 -15 12 0 12
-2 2 -9 -8 -4 -14 -12 -14 -16 0 -4 6 -12 14 -16 10 -7 10 -9 1 -9 -7 0 -13
-8 -13 -17 0 -15 -2 -16 -10 -3 -5 8 -10 11 -10 6 0 -6 -5 -5 -12 2 -19 19
-32 14 -17 -5 10 -14 8 -13 -10 2 l-24 20 7 -20 c5 -15 4 -17 -5 -8 -6 6 -19
9 -28 6 -10 -3 -12 -2 -5 4 7 5 4 14 -9 26 -18 18 -18 18 -14 -12 3 -17 1 -31
-4 -31 -5 0 -12 0 -16 0 -5 0 -8 11 -9 25 -1 13 2 22 7 20 4 -3 6 10 5 29 -2
26 0 33 13 31 9 -2 20 -4 24 -4 5 -1 5 -5 2 -11 -3 -5 1 -10 10 -10 9 0 14 4
10 9 -3 5 -1 12 5 16 5 3 10 14 10 23 0 13 -2 13 -14 -4 -11 -14 -17 -16 -27
-7 -6 6 -18 9 -25 6 -8 -3 -14 1 -14 11 0 19 11 21 28 4 9 -9 12 -9 12 -1 0 7
-5 15 -10 18 -6 4 -8 15 -5 24 3 12 0 18 -10 18 -8 0 -14 -7 -13 -15 2 -8 -3
-17 -11 -20 -11 -3 -12 0 -6 14 4 11 8 29 9 41 1 12 5 25 9 29 4 4 2 13 -4 20
-8 9 -4 16 13 25 13 7 26 12 30 11 4 -1 5 5 1 13 -4 13 -8 13 -22 3 -13 -10
-12 -8 2 8 21 25 77 31 77 8z m1950 0 c0 -8 -19 -13 -24 -6 -3 5 1 9 9 9 8 0
15 -2 15 -3z m54 -6 c-3 -4 -1 -8 4 -8 4 0 8 -14 8 -30 0 -17 -4 -29 -10 -27
-6 2 -10 16 -10 30 1 15 -3 27 -7 27 -5 0 -9 -5 -9 -11 0 -5 -4 -8 -9 -4 -6 3
-16 -1 -23 -8 -10 -12 -15 -11 -28 6 -14 16 -17 17 -17 4 0 -9 5 -13 10 -10 6
3 7 1 4 -4 -11 -18 21 -23 38 -7 8 9 15 13 15 11 0 -3 3 -13 6 -22 4 -9 3 -15
-2 -14 -22 4 -35 -2 -28 -12 5 -8 8 -8 14 0 3 7 7 -1 7 -18 0 -20 -4 -28 -13
-24 -8 3 -12 10 -11 16 1 7 -4 12 -12 12 -8 0 -15 -8 -17 -17 -1 -9 3 -15 10
-12 6 2 12 -5 13 -16 1 -11 -2 -18 -8 -15 -5 4 -9 1 -9 -5 0 -7 7 -9 17 -6 10
4 14 4 10 0 -4 -4 -2 -13 5 -21 6 -7 8 -16 4 -20 -3 -4 -13 2 -22 13 -14 18
-15 18 -4 -3 6 -13 15 -23 21 -23 6 0 7 -5 4 -10 -4 -6 -10 -8 -14 -6 -4 3 -8
-1 -8 -9 0 -8 4 -12 9 -9 12 8 33 -9 34 -28 1 -10 -7 -20 -18 -24 -15 -4 -17
-9 -7 -20 6 -8 19 -12 28 -9 28 8 43 -8 26 -31 -14 -18 -16 -18 -29 -1 -7 9
-19 17 -27 16 -12 0 -12 -1 0 -6 11 -5 11 -7 0 -15 -11 -7 -9 -8 4 -4 12 4 17
2 15 -6 -2 -6 -11 -12 -19 -13 -12 -2 -15 8 -14 46 1 27 -1 49 -4 49 -3 0 -7
21 -8 48 -4 69 -8 106 -15 117 -3 6 -4 21 -3 35 1 14 -3 28 -9 32 -7 5 -7 8 3
8 11 0 11 3 1 15 -18 22 -5 48 18 36 14 -7 24 -7 36 2 19 14 57 17 50 5z m92
-1 c4 -3 15 -2 25 3 11 6 20 6 24 1 3 -5 16 -8 30 -5 13 2 27 0 30 -6 4 -6 12
-7 18 -3 7 4 6 -1 -2 -10 -12 -16 -12 -17 5 -11 14 4 16 3 5 -4 -7 -5 -10 -15
-7 -21 4 -6 3 -11 -2 -11 -5 0 -9 -7 -10 -15 -1 -8 -3 -22 -4 -30 -1 -8 -8
-15 -16 -15 -12 0 -12 3 -2 15 10 12 10 15 -1 15 -11 0 -11 2 1 10 8 5 11 10
5 10 -5 0 -4 4 4 9 7 5 10 14 7 20 -4 6 -11 9 -16 6 -4 -3 -10 2 -14 10 -3 9
-12 12 -22 8 -10 -4 -15 -2 -11 3 3 5 -3 10 -13 10 -11 0 -17 -2 -15 -5 7 -6
-15 -31 -27 -31 -6 0 -5 6 2 15 6 8 9 19 5 26 -6 8 -10 7 -16 -2 -8 -12 -10
-12 -18 0 -6 9 -11 10 -15 2 -10 -15 2 -31 18 -25 7 3 13 -1 13 -9 0 -9 -12
-14 -31 -14 -17 0 -25 2 -18 5 6 2 9 9 5 15 -12 19 -10 31 6 38 18 7 48 5 57
-4z m-1067 -27 c7 0 11 -6 8 -12 -2 -7 3 -21 12 -32 15 -17 15 -18 -4 -15 -15
3 -20 -2 -21 -21 -2 -29 14 -53 31 -47 7 3 11 -13 11 -47 1 -28 -1 -46 -3 -39
-2 7 -14 1 -29 -14 -13 -13 -28 -22 -33 -18 -5 3 -13 0 -17 -6 -5 -8 -3 -9 6
-4 10 6 12 4 6 -11 -6 -16 -4 -16 14 4 25 27 37 28 37 5 0 -21 -25 -53 -41
-53 -6 1 -1 9 11 19 12 10 20 21 17 24 -5 5 -54 -39 -54 -48 0 -3 5 -4 11 -2
6 1 14 -4 16 -11 3 -8 -1 -10 -11 -6 -9 3 -16 1 -16 -6 0 -6 5 -8 10 -5 6 3
10 0 11 -7 0 -7 6 0 13 16 9 20 22 30 40 32 14 1 26 -2 26 -7 0 -5 -8 -9 -17
-10 -11 0 -13 -3 -5 -6 6 -2 12 -9 12 -14 0 -4 -6 -6 -13 -3 -7 2 -31 -12 -52
-33 -41 -40 -85 -54 -85 -27 0 8 -4 12 -10 9 -17 -11 -11 7 8 21 23 18 37 17
22 -1 -7 -9 -10 -18 -6 -22 3 -3 6 -1 6 5 0 7 5 12 11 12 6 0 8 -7 5 -16 -3
-8 -2 -13 3 -10 5 4 8 29 6 56 -2 28 1 53 6 56 12 7 11 24 -1 24 -5 0 -9 -5
-7 -11 1 -6 -3 -13 -8 -15 -6 -2 -11 5 -12 16 -1 11 4 20 11 20 23 0 40 28 27
44 -8 10 -8 16 3 25 20 17 58 23 53 8 -2 -7 -11 -11 -20 -9 -20 3 -32 -17 -18
-31 7 -7 17 -3 35 15 15 17 20 30 14 36 -5 5 -11 18 -12 28 -2 11 -10 18 -19
16 -11 -2 -15 2 -11 12 3 8 0 17 -5 21 -6 3 -9 11 -5 16 3 5 0 16 -6 24 -15
18 1 20 18 3 7 -7 12 -10 13 -7 5 27 4 47 -2 43 -4 -2 -10 2 -13 8 -3 7 -3 2
0 -10 5 -21 4 -23 -15 -13 -24 13 -25 15 -10 43 11 20 13 20 24 5 7 -9 18 -17
24 -17z m-81 -3 c6 3 12 -2 12 -11 0 -9 5 -16 11 -16 5 0 8 -4 5 -8 -2 -4 -1
-14 4 -22 5 -9 5 -19 -2 -27 -13 -16 -38 -17 -38 -2 0 5 4 8 9 4 15 -8 24 14
12 29 -6 7 -7 17 -3 21 4 5 1 5 -6 1 -10 -6 -10 -11 -1 -22 6 -8 9 -17 6 -20
-3 -3 -12 3 -19 15 -14 23 -30 29 -22 8 3 -8 -4 -13 -17 -14 -16 -2 -18 1 -10
11 8 10 7 17 -6 27 -16 12 -17 12 -6 -2 13 -16 8 -29 -9 -29 -5 0 -7 4 -3 9 9
16 -15 24 -30 11 -17 -14 -20 0 -5 18 7 9 7 9 -2 2 -18 -15 -28 -12 -22 8 5
14 4 14 -5 2 -7 -11 -5 -20 7 -34 16 -18 16 -19 -3 -12 -16 6 -17 5 -8 -5 10
-10 17 -9 33 6 11 10 23 16 26 13 8 -8 -47 -49 -57 -42 -5 3 -9 3 -9 1 0 -3
16 -14 36 -26 19 -12 32 -25 29 -31 -3 -5 -2 -18 4 -27 8 -15 9 -13 7 10 -1
15 -6 30 -9 34 -17 16 -5 24 13 8 14 -12 17 -22 10 -30 -5 -6 -7 -15 -3 -18 3
-4 1 -12 -5 -20 -6 -7 -9 -24 -8 -39 2 -21 -1 -25 -20 -25 -19 0 -21 2 -9 13
7 8 11 26 9 41 -3 16 -5 36 -5 45 0 16 -1 16 -18 0 -13 -13 -15 -20 -7 -31 9
-11 8 -13 -4 -9 -9 3 -16 19 -17 44 -1 21 -4 58 -7 81 -2 25 1 49 9 59 12 16
15 17 37 2 34 -22 74 -18 69 7 -3 19 -2 19 15 4 11 -9 25 -14 32 -12z m572 -7
c0 -5 -4 -10 -10 -10 -5 0 -10 5 -10 10 0 6 5 10 10 10 6 0 10 -4 10 -10z m40
0 c0 -5 -7 -10 -15 -10 -8 0 -15 5 -15 10 0 6 7 10 15 10 8 0 15 -4 15 -10z
m580 -4 c0 -8 -5 -18 -10 -21 -6 -4 -8 -15 -5 -26 5 -14 2 -17 -9 -13 -8 3
-14 11 -13 16 1 6 -4 13 -10 15 -15 6 -17 -13 -3 -22 6 -3 10 -10 10 -16 0 -5
-9 -4 -19 3 -11 7 -18 15 -15 19 2 4 0 10 -5 13 -5 4 -7 -8 -4 -26 4 -31 4
-32 -10 -13 -9 11 -13 24 -10 29 4 5 1 6 -5 2 -7 -4 -12 -2 -12 3 0 6 6 11 13
12 44 3 60 8 75 22 20 21 32 22 32 3z m25 4 c-6 -9 8 -15 29 -11 5 1 4 -5 -3
-13 -19 -23 -21 -65 -3 -75 14 -8 14 -11 2 -27 -14 -16 -13 -17 3 -11 10 4 16
3 13 -2 -3 -5 8 -36 24 -70 31 -64 39 -99 16 -68 -7 9 -17 17 -21 17 -4 0 -2
-7 5 -15 15 -18 -1 -20 -18 -3 -10 10 -7 15 10 26 16 9 17 12 4 8 -14 -5 -17
-2 -12 10 3 9 3 21 -1 27 -4 7 -8 18 -8 24 0 7 -4 12 -9 12 -17 -1 -28 31 -16
47 8 8 8 14 2 14 -6 0 -12 -3 -15 -7 -2 -5 -2 -3 -1 4 2 7 -1 15 -6 18 -6 4
-10 11 -10 16 0 6 5 7 12 3 7 -5 8 -3 3 6 -6 10 -11 9 -21 -4 -7 -11 -18 -15
-25 -10 -7 4 -10 3 -5 -4 4 -6 -3 -9 -19 -8 -13 2 -22 0 -20 -5 3 -4 0 -9 -5
-11 -6 -2 -12 -13 -13 -26 0 -12 -2 -22 -3 -22 -12 0 -34 14 -34 22 0 5 4 7 9
3 18 -10 23 16 7 34 -9 10 -13 21 -9 24 3 4 2 7 -3 8 -5 0 -16 2 -24 4 -10 1
-16 -5 -16 -16 0 -11 4 -19 9 -19 4 0 5 -5 2 -10 -13 -20 -24 1 -19 37 2 20 7
39 9 42 7 7 55 -41 50 -49 -3 -5 2 -11 10 -14 9 -3 18 1 22 9 4 11 9 13 18 5
6 -5 15 -6 19 -2 4 4 13 7 19 7 7 0 12 10 12 23 0 12 7 27 15 32 8 5 11 10 7
10 -9 0 1 20 9 20 3 0 2 -4 -1 -10z m-1269 -82 c5 -8 2 -9 -10 -5 -10 4 -15 3
-11 -3 4 -6 14 -9 22 -8 9 2 18 -2 20 -9 2 -6 -3 -10 -13 -9 -18 3 -54 41 -54
57 0 12 36 -6 46 -23z m38 10 c-4 -6 4 -19 17 -30 l24 -18 -24 -20 c-18 -16
-27 -18 -37 -9 -8 6 -14 16 -14 21 0 6 7 5 15 -2 13 -10 18 -11 28 -1 9 10 6
17 -15 33 -33 23 -35 33 -8 35 12 1 18 -3 14 -9z m-84 -8 c0 -5 -7 -10 -16
-10 -8 0 -12 5 -9 10 3 6 10 10 16 10 5 0 9 -4 9 -10z m1186 -47 c-3 -4 -6 0
-6 8 -1 9 -4 8 -12 -5 -9 -15 -7 -22 8 -33 10 -7 23 -12 29 -9 5 2 17 7 26 10
10 4 16 2 16 -7 0 -9 -15 -13 -48 -13 -28 0 -45 4 -42 10 3 5 -1 15 -11 21
-14 11 -14 14 -2 24 8 7 12 21 9 34 -5 20 -3 19 17 -6 12 -15 20 -31 16 -34z
m-1039 17 c-1 -11 -6 -20 -11 -20 -5 0 -7 -3 -4 -6 4 -3 15 -1 25 4 15 9 19 7
20 -8 1 -12 -3 -17 -12 -14 -7 3 -16 1 -20 -5 -13 -22 -21 -10 -19 32 2 51 2
50 13 42 6 -3 9 -14 8 -25z m629 5 c0 -14 -4 -25 -8 -25 -6 0 -5 25 1 48 3 10
7 -2 7 -23z m340 -2 c10 -23 11 -29 13 -50 1 -15 3 -16 11 -3 7 12 9 11 8 -5
-1 -11 2 -30 6 -43 7 -21 6 -22 -18 -11 -14 7 -26 16 -26 21 0 13 18 10 23 -4
4 -10 6 -10 6 0 1 7 -5 15 -13 18 -8 3 -12 12 -10 19 3 7 0 16 -5 20 -6 3 -9
11 -5 16 3 5 0 16 -6 24 -7 9 -8 15 -2 15 5 0 13 -8 18 -17z m189 -3 c-9 -15
24 -72 37 -64 7 5 9 2 5 -8 -3 -9 -1 -20 4 -25 15 -15 -7 -64 -26 -57 -8 3
-12 10 -9 15 3 6 0 17 -7 25 -11 13 -10 15 3 12 9 -1 16 2 15 7 -1 6 -5 9 -9
8 -4 -2 -5 4 -2 12 4 8 1 15 -5 15 -6 0 -10 -3 -10 -7 3 -19 -2 -36 -8 -30
-12 13 -12 56 0 53 7 -1 9 -1 4 1 -4 3 -5 9 -2 14 4 5 -1 6 -10 3 -12 -5 -14
-2 -8 12 6 16 5 17 -9 4 -9 -8 -12 -17 -8 -20 4 -3 11 -16 15 -29 6 -21 5 -22
-8 -10 -8 8 -14 19 -14 24 1 6 -9 9 -23 8 -14 -1 -19 1 -12 3 6 3 10 10 7 14
-3 5 4 14 15 20 11 6 20 8 20 5 0 -3 8 -2 17 4 19 10 36 5 28 -9z m146 0 c3
-19 5 -25 22 -57 12 -23 14 -34 5 -39 -7 -5 -8 -3 -3 6 6 9 4 11 -5 5 -8 -5
-11 -4 -6 3 3 6 2 13 -4 17 -6 4 -8 10 -5 15 6 9 -20 21 -29 13 -3 -4 -6 -11
-6 -17 0 -7 3 -6 8 1 5 9 11 6 21 -9 11 -18 11 -20 -3 -15 -8 3 -18 1 -22 -5
-5 -7 -2 -8 6 -3 9 6 11 4 5 -5 -6 -9 -4 -11 5 -5 8 5 11 4 7 -1 -3 -6 6 -10
21 -10 15 1 29 -3 30 -9 2 -5 9 -16 14 -23 8 -9 8 -16 1 -23 -8 -8 -13 -7 -18
2 -6 8 -4 10 6 4 12 -8 12 -6 1 8 -8 9 -10 22 -6 29 5 10 4 10 -6 1 -7 -6 -18
-10 -24 -9 -6 2 -8 1 -3 -1 4 -3 5 -9 2 -14 -4 -5 0 -6 7 -4 9 4 14 -2 15 -14
2 -18 -1 -19 -18 -8 -10 6 -19 17 -19 23 0 6 -8 22 -18 35 -24 33 -28 84 -7
93 9 3 13 10 10 16 -3 5 -1 10 4 10 6 0 12 -4 12 -10z m-1361 -10 c0 -5 -5
-10 -11 -10 -5 0 -7 5 -4 10 3 6 8 10 11 10 2 0 4 -4 4 -10z m-105 -65 c2 -14
-1 -25 -5 -25 -14 0 -21 18 -11 25 6 3 7 13 4 23 -3 9 -3 14 2 10 4 -4 9 -19
10 -33z m729 -11 c9 -8 16 -27 16 -41 0 -26 0 -26 -20 -8 -20 18 -21 18 -36
-1 -14 -16 -15 -17 -10 -1 3 9 1 17 -4 17 -6 0 -10 4 -10 9 0 11 39 9 58 -3 7
-4 12 -2 12 3 0 11 -14 15 -39 11 -13 -1 -13 1 -2 14 16 20 16 20 35 0z m520
3 c3 -4 3 -5 -1 -2 -3 3 -12 0 -20 -6 -10 -9 -17 -8 -30 2 -16 13 -17 12 -4
-3 8 -11 9 -18 3 -18 -14 0 -25 18 -18 29 7 10 62 9 70 -2z m76 -49 c0 -17
-17 -7 -29 18 -9 21 -14 24 -26 14 -8 -6 -19 -9 -25 -5 -7 4 -7 -2 0 -20 7
-18 7 -32 -1 -43 -9 -14 -10 -14 -6 -1 3 9 1 22 -4 30 -7 12 -9 12 -10 -1 -1
-8 0 -22 1 -30 1 -12 -1 -12 -11 -3 -9 9 -16 10 -26 2 -9 -8 -17 -8 -27 0 -11
9 -15 9 -19 -1 -2 -7 -8 -9 -13 -5 -12 11 17 28 37 21 9 -2 24 3 33 11 19 20
21 32 3 16 -8 -6 -17 -8 -21 -4 -6 7 53 37 67 34 4 0 10 6 14 15 5 13 10 11
34 -12 16 -15 29 -31 29 -36z m-1140 42 c0 -5 -4 -10 -10 -10 -5 0 -10 5 -10
10 0 6 5 10 10 10 6 0 10 -4 10 -10z m1140 -65 c11 -3 20 -11 20 -17 0 -6 -6
-6 -15 2 -12 10 -15 10 -16 -1 0 -8 -5 -4 -11 9 -6 13 -17 21 -24 18 -19 -7
-28 12 -13 30 11 14 14 12 26 -10 7 -13 22 -27 33 -31z m-154 20 c17 -16 14
-18 -10 -9 -9 3 -16 10 -16 15 0 13 9 11 26 -6z m-413 -60 c10 -17 21 -38 24
-47 3 -10 10 -18 15 -18 5 0 6 -5 3 -10 -4 -6 -12 -4 -21 5 -9 8 -13 19 -10
23 3 5 -6 7 -19 4 -14 -2 -25 0 -25 6 0 6 -8 12 -17 14 -10 2 -18 12 -18 23 0
13 -6 19 -16 17 -9 -1 -16 5 -16 13 0 8 2 15 5 15 11 0 62 -35 62 -43 0 -4 -4
-5 -10 -2 -5 3 -10 2 -10 -3 0 -6 8 -13 18 -17 31 -14 41 -13 35 2 -5 12 -7
12 -14 1 -5 -7 -9 -8 -10 -3 -1 6 -2 15 -3 22 0 7 -10 18 -20 26 -11 8 -16 19
-11 26 8 14 27 -4 58 -54z m568 10 c11 -1 23 4 26 12 5 11 9 11 24 -3 10 -9
22 -13 27 -10 6 3 12 -1 16 -9 3 -8 1 -17 -4 -20 -6 -4 -10 -2 -10 3 0 5 -12
14 -26 20 -14 7 -23 8 -19 2 3 -5 0 -10 -7 -10 -9 0 -9 -3 2 -10 8 -5 12 -10
8 -10 -3 0 -14 -3 -22 -6 -12 -5 -15 -2 -10 10 3 9 1 16 -6 16 -6 0 -8 -4 -5
-10 3 -5 -1 -10 -10 -10 -9 0 -14 4 -11 8 6 10 -10 37 -24 38 -23 3 -24 5 -10
14 11 7 19 5 27 -7 7 -9 22 -17 34 -18z m-111 -5 c0 -5 -7 -7 -15 -4 -8 4 -12
10 -9 15 6 11 24 2 24 -11z m225 11 c-3 -5 0 -13 6 -16 5 -4 8 -13 5 -21 -4
-10 0 -14 11 -12 9 2 18 -2 20 -9 3 -8 -3 -10 -19 -7 -13 3 -29 6 -35 6 -18 2
-16 17 3 25 11 4 12 8 4 13 -11 7 -6 30 6 30 3 0 3 -4 -1 -9z m-758 -20 c-1
-22 -37 -25 -37 -3 0 7 4 11 9 7 5 -3 12 -1 16 5 9 15 14 12 12 -9z m597 7
c-3 -4 -1 -8 3 -8 13 0 13 -37 0 -37 -7 0 -16 -2 -22 -3 -20 -5 -36 0 -30 10
3 5 12 7 19 4 22 -8 28 12 8 27 -15 13 -16 12 -3 -3 15 -20 2 -24 -18 -5 -10
10 -12 9 -9 -2 2 -7 -3 -16 -10 -18 -10 -4 -10 1 -1 19 7 18 19 24 39 24 16 0
27 -3 24 -8z m-1157 -29 c2 -17 -1 -18 -12 -9 -8 7 -12 16 -9 21 9 16 20 10
21 -12z m1083 11 c0 -5 -6 -10 -12 -10 -7 -1 3 -9 22 -19 25 -14 40 -16 52
-10 10 5 18 7 18 3 0 -3 7 -1 15 6 12 10 18 10 30 0 13 -11 13 -15 3 -21 -22
-15 -31 -10 -17 9 13 15 12 16 -3 4 -9 -8 -21 -11 -26 -8 -6 3 -16 -2 -23 -12
-11 -14 -11 -15 1 -5 9 8 19 9 32 2 25 -14 59 5 51 29 -6 15 -5 15 10 3 12 -9
14 -17 8 -25 -7 -8 -4 -12 9 -12 14 0 16 4 10 17 -6 10 -5 21 3 29 10 12 9 12
-5 1 -15 -11 -17 -10 -15 8 2 31 15 26 38 -14 12 -19 26 -35 32 -34 8 0 8 2 0
6 -7 2 -13 9 -13 15 0 7 4 7 13 0 13 -11 29 -10 60 3 9 4 24 5 32 1 8 -3 19
-6 23 -7 20 -3 42 -21 36 -30 -4 -6 -12 -5 -22 3 -12 10 -14 10 -8 1 6 -12
-14 -13 -63 -4 -2 1 2 8 9 16 11 13 10 14 -4 9 -9 -3 -16 -10 -16 -14 0 -5 -9
-7 -20 -5 -11 2 -22 1 -24 -3 -6 -10 -244 -8 -273 2 -16 5 -23 3 -24 -6 0 -7
-4 -4 -8 7 -11 25 -5 35 19 35 10 0 22 9 25 20 7 21 25 28 25 10z m-80 -60 c0
-5 -4 -10 -10 -10 -5 0 -10 5 -10 10 0 6 5 10 10 10 6 0 10 -4 10 -10z m-3180
-110 c0 -5 -5 -10 -11 -10 -5 0 -7 5 -4 10 3 6 8 10 11 10 2 0 4 -4 4 -10z
m-285 -401 c0 -60 -3 -72 -17 -75 -35 -5 -45 141 -10 149 9 2 19 2 22 1 3 -1
5 -35 5 -75z m15 -469 c0 -4 -7 -7 -15 -6 -23 3 -26 12 -5 13 11 1 20 -2 20
-7z m1053 -716 c40 -3 118 -16 173 -29 56 -14 117 -27 135 -30 19 -3 70 -13
114 -23 44 -11 85 -20 90 -21 6 -1 19 -4 30 -6 11 -3 34 -7 50 -9 29 -5 55
-10 113 -22 15 -3 36 -7 47 -9 43 -7 114 -22 125 -25 3 -1 27 -1 53 0 47 2 48
1 45 -26 -3 -24 -8 -28 -40 -30 -29 -1 -38 3 -39 15 -1 12 -3 11 -6 -3 -4 -15
-7 -16 -14 -5 -7 12 -9 12 -9 0 0 -8 -8 -4 -21 10 l-20 24 11 -23 c7 -13 9
-26 6 -30 -3 -3 -6 0 -6 7 0 7 -4 9 -10 6 -5 -3 -10 1 -10 9 0 8 -4 17 -9 20
-5 4 -7 -4 -4 -16 4 -20 3 -21 -7 -6 -6 9 -17 15 -25 12 -8 -4 -15 -1 -15 7 0
7 -3 9 -6 6 -4 -4 -2 -12 4 -19 8 -10 4 -13 -18 -13 -16 -1 -26 3 -24 7 3 4 0
8 -6 8 -6 0 -8 5 -4 12 4 7 3 8 -5 4 -6 -4 -9 -13 -5 -19 3 -7 -2 -3 -11 8
-17 20 -17 20 -11 -5 l7 -25 -22 25 c-13 14 -20 18 -16 9 4 -13 1 -16 -16 -11
-12 2 -28 9 -34 15 -9 6 -13 6 -13 -2 0 -15 -50 -14 -51 2 0 10 -2 10 -6 0 -2
-7 -11 -13 -19 -13 -9 0 -12 5 -8 13 6 10 4 10 -7 0 -17 -16 -43 -17 -33 -1 4
7 3 8 -5 4 -6 -4 -9 -11 -6 -16 3 -4 -4 -10 -15 -13 -23 -6 -26 3 -7 22 8 8 3
8 -16 -2 -15 -8 -39 -13 -53 -11 -20 2 -24 0 -15 -9 6 -6 11 -15 11 -20 0 -5
-7 -1 -16 7 -18 18 -39 22 -28 5 4 -7 -1 -7 -15 1 -30 15 -61 21 -75 12 -17
-10 -48 -13 -42 -3 3 5 -5 4 -19 -2 -14 -7 -25 -15 -25 -20 0 -4 -13 -1 -30 8
-27 14 -29 14 -23 -2 4 -10 3 -14 -5 -9 -6 3 -15 -2 -21 -11 -13 -23 -14 -8
-1 17 7 13 7 21 0 25 -6 4 -9 1 -8 -7 2 -7 -3 -12 -10 -10 -8 1 -11 -1 -9 -5
3 -5 -2 -14 -10 -22 -13 -12 -14 -11 -8 10 7 21 6 22 -8 10 -9 -7 -14 -18 -11
-25 3 -6 -3 -2 -13 10 -18 20 -73 28 -73 11 0 -5 -8 -3 -17 4 -14 12 -16 12
-8 0 6 -11 3 -13 -13 -9 -12 4 -25 1 -29 -4 -4 -7 -1 -8 8 -3 11 7 12 6 2 -7
-7 -8 -10 -18 -6 -21 3 -4 1 -7 -6 -7 -7 0 -11 6 -8 14 8 19 -18 42 -29 25 -4
-8 -3 -9 4 -5 7 4 12 2 12 -4 0 -7 -8 -9 -21 -5 -16 5 -19 4 -14 -5 5 -9 4
-11 -4 -6 -15 10 -43 -13 -34 -27 3 -6 1 -7 -5 -3 -6 3 -9 15 -7 25 2 12 -3
21 -16 24 -16 4 -18 3 -9 -8 8 -10 8 -15 -1 -21 -8 -4 -9 -3 -5 4 4 7 2 12 -3
12 -6 0 -11 -5 -11 -11 0 -8 -4 -8 -14 1 -12 9 -13 17 -4 38 24 63 57 198 61
248 0 7 20 10 51 9 28 0 67 2 86 5 19 4 43 3 53 -2 10 -5 50 -11 90 -14z m471
-233 c-10 -10 -21 -16 -24 -14 -3 3 4 11 14 19 28 20 33 17 10 -5z m47 6 c-6
-8 -8 -17 -4 -20 3 -4 1 -7 -5 -7 -16 0 -15 27 1 33 19 8 20 8 8 -6z m85 -11
c2 -13 1 -13 -3 -1 -2 8 -9 13 -14 10 -5 -4 -9 -1 -9 5 0 18 25 5 26 -14z
m-340 2 c3 -4 -2 -5 -13 -4 -10 2 -21 -2 -25 -8 -5 -7 -8 -4 -8 6 0 17 31 21
46 6z m134 0 c0 -6 -3 -8 -7 -5 -3 4 -11 0 -17 -9 -10 -13 -12 -13 -12 3 0 11
8 20 18 20 10 1 18 -3 18 -9z m-233 -20 c-3 -8 -6 -5 -6 6 -1 11 2 17 5 13 3
-3 4 -12 1 -19z m37 14 c3 -5 -1 -9 -9 -9 -8 0 -12 4 -9 9 3 4 7 8 9 8 2 0 6
-4 9 -8z m456 4 c0 -3 -4 -8 -10 -11 -5 -3 -10 -1 -10 4 0 6 5 11 10 11 6 0
10 -2 10 -4z m-723 -28 c-7 -10 -13 -14 -15 -8 -2 6 -8 8 -13 4 -5 -3 -9 -1
-9 5 0 10 16 18 37 18 8 0 8 -5 0 -19z m4403 5 c0 -16 -25 -73 -32 -73 -4 0
-8 -6 -8 -13 0 -18 -69 -89 -79 -82 -5 2 -12 17 -15 31 -6 22 1 34 43 76 28
28 48 54 45 59 -3 5 6 9 20 9 14 0 26 -3 26 -7z m-4479 -26 c-10 -9 -11 -8 -5
6 3 10 9 15 12 12 3 -3 0 -11 -7 -18z m4069 -92 c8 -5 18 -10 23 -11 4 -1 8
-3 10 -4 1 -1 14 -3 29 -4 31 -1 41 -9 45 -36 5 -37 -58 -24 -141 29 -32 21
-35 26 -20 32 23 8 34 6 54 -6z m-1345 -55 c13 0 25 -7 29 -15 3 -9 18 -14 38
-14 18 1 38 0 43 -1 6 -1 12 -1 15 0 3 1 37 4 75 5 116 5 280 14 280 15 0 1
25 3 55 4 30 2 105 7 166 11 103 6 112 5 117 -12 21 -64 110 -174 200 -248 17
-15 25 -23 17 -19 -8 4 -26 8 -41 9 -15 1 -35 7 -43 14 -17 14 -22 1 -6 -15 6
-6 5 -15 -1 -24 -9 -13 -10 -12 -5 2 3 12 -2 22 -17 30 -12 6 -23 11 -24 10
-2 -1 -9 -2 -15 -2 -9 0 -8 3 2 10 9 6 20 5 29 -3 12 -9 13 -9 8 0 -5 8 -1 11
13 8 11 -2 20 1 20 7 0 5 -7 7 -16 4 -12 -5 -15 -2 -10 11 5 15 4 15 -9 -1
-14 -18 -20 -15 -16 7 1 5 -3 6 -9 2 -6 -3 -7 -11 -4 -17 4 -6 1 -8 -7 -6 -8
3 -13 10 -12 15 1 5 -4 10 -12 10 -8 0 -12 -4 -9 -9 3 -4 0 -8 -6 -8 -6 0 -8
-5 -4 -11 4 -8 9 -7 16 2 8 11 9 11 6 1 -2 -8 -7 -13 -12 -12 -5 1 -13 -4 -18
-12 -5 -8 -6 0 -3 22 5 34 5 34 -9 11 l-14 -24 -7 23 -7 23 -13 -22 c-11 -22
-12 -22 -20 -5 -5 11 -7 24 -6 31 1 6 -3 14 -9 18 -5 3 -7 0 -4 -8 3 -8 -2
-14 -11 -14 -14 0 -19 10 -16 30 1 5 -3 5 -9 2 -6 -4 -9 -14 -6 -22 4 -9 1
-13 -6 -10 -7 2 -12 12 -12 21 2 12 -1 14 -10 6 -7 -5 -17 -6 -21 -2 -5 4 -4
1 0 -7 6 -11 4 -13 -11 -6 -27 11 -84 7 -84 -7 0 -4 -5 -8 -11 -8 -8 0 -8 5 1
15 7 8 16 12 21 9 15 -9 10 7 -8 24 -13 13 -16 14 -11 2 3 -9 -5 -23 -20 -34
-14 -11 -22 -15 -19 -9 4 5 -5 15 -20 22 -21 10 -28 9 -34 -1 -5 -8 -8 -6 -6
9 1 18 4 20 20 11 24 -12 32 -5 18 19 -6 10 -11 13 -11 7 0 -17 -60 -15 -60 2
0 8 -4 14 -10 14 -5 0 -6 -8 -3 -17 6 -15 4 -16 -9 -6 -8 7 -19 9 -23 5 -5 -4
-5 2 -2 13 7 20 7 20 -8 1 -13 -17 -18 -16 -17 4 0 4 -80 6 -100 1 -5 0 -10 0
-13 2 -2 1 -11 -7 -20 -18 -9 -13 -13 -14 -10 -4 4 10 0 16 -10 16 -11 0 -14
-7 -10 -21 5 -19 5 -19 -7 2 -11 18 -16 20 -28 10 -12 -11 -12 -10 -1 5 12 15
11 17 -10 17 -17 0 -20 3 -11 9 11 7 10 9 -3 14 -9 4 -13 3 -10 -3 3 -6 1 -10
-5 -10 -6 0 -8 -4 -5 -10 3 -6 -1 -7 -10 -3 -13 5 -14 7 -3 14 8 6 0 9 -24 9
-21 0 -37 3 -37 8 1 4 1 13 0 21 -1 12 -4 11 -13 -2 -17 -22 -79 -41 -72 -22
3 8 11 12 18 9 6 -2 20 1 29 9 17 12 17 13 -2 13 -11 0 -18 -4 -15 -8 2 -4 -5
-6 -16 -5 -10 1 -22 7 -25 15 -6 15 -25 7 -25 -11 0 -8 3 -8 9 1 7 11 9 10 14
-3 4 -9 3 -13 -2 -10 -5 3 -12 1 -16 -5 -4 -7 -12 -7 -25 0 -19 10 -20 20 -4
97 l4 22 47 -24 c25 -14 56 -25 68 -25z m-2993 -60 c4 0 8 6 8 13 0 8 4 7 10
-3 5 -8 10 -10 10 -4 0 6 7 11 15 11 8 0 11 -5 8 -10 -4 -7 1 -8 12 -3 15 5
16 4 5 -9 -10 -12 -10 -15 4 -15 9 0 16 -4 16 -10 0 -13 -17 -13 -25 0 -4 6
-11 8 -16 5 -5 -3 -6 1 -3 9 3 9 1 16 -5 16 -6 0 -11 -7 -11 -15 0 -13 -4 -13
-27 2 -15 10 -28 17 -30 16 -10 -9 -23 0 -23 14 0 15 2 14 16 -3 14 -18 15
-18 9 6 -5 25 -5 25 6 3 7 -13 16 -23 21 -23z m95 -2 c-3 -8 -6 -5 -6 6 -1 11
2 17 5 13 3 -3 4 -12 1 -19z m131 -10 c-2 -7 2 -12 8 -11 6 1 11 -5 11 -13 0
-18 -2 -18 -21 2 -9 8 -14 20 -11 25 9 13 15 11 13 -3z m2789 5 c-4 -3 -2 -12
4 -20 9 -9 8 -13 0 -13 -6 0 -11 6 -11 13 0 8 -4 7 -10 -3 -5 -8 -10 -10 -10
-4 0 10 20 34 29 34 2 0 1 -3 -2 -7z m-2828 -10 c-3 -20 2 -34 11 -28 6 3 10
1 10 -4 0 -6 3 -10 8 -10 20 3 33 -2 30 -13 -6 -16 -38 -19 -38 -4 0 7 -11 18
-25 24 -33 15 -33 30 3 41 1 1 1 -2 1 -6z m236 -41 c-3 -3 -11 0 -18 7 -9 10
-8 11 6 5 10 -3 15 -9 12 -12z m2640 8 c4 -6 -1 -7 -11 -3 -11 4 -15 3 -10 -5
3 -6 2 -13 -3 -16 -7 -5 -8 11 -2 32 2 6 21 1 26 -8z m-2715 -15 c7 -9 8 -15
2 -15 -5 0 -12 7 -16 15 -3 8 -4 15 -2 15 2 0 9 -7 16 -15z m2763 -6 c-8 -8
-13 -7 -18 2 -5 8 -4 10 3 5 7 -4 12 -2 12 5 0 7 3 9 7 6 4 -4 2 -12 -4 -18z
m197 5 c0 -7 5 -16 12 -20 8 -5 9 -2 4 11 -5 14 -4 16 7 7 8 -7 17 -9 21 -5 4
4 4 0 1 -9 -4 -10 -12 -16 -18 -15 -7 1 -10 -5 -9 -13 2 -8 1 -12 -3 -8 -4 3
-5 8 -3 11 5 7 -34 47 -46 47 -6 0 -5 -5 2 -12 7 -7 12 -16 12 -22 0 -5 -9 1
-20 14 -11 13 -20 18 -20 12 0 -7 -5 -12 -11 -12 -8 0 -8 4 -1 13 15 17 72 18
72 1z m-2916 -6 c-3 -4 -9 -8 -15 -8 -5 0 -9 4 -9 8 0 5 7 9 15 9 8 0 12 -4 9
-9z m2992 -35 c-3 -4 -6 -1 -6 6 0 7 -4 9 -10 6 -6 -4 -7 1 -3 11 6 15 7 15
15 -1 6 -9 7 -19 4 -22z m-2841 9 c-3 -3 -11 0 -18 7 -9 10 -8 11 6 5 10 -3
15 -9 12 -12z m2877 0 c-9 -3 -10 -8 -3 -16 7 -8 5 -12 -9 -12 -14 0 -16 4
-10 17 5 9 6 19 2 23 -3 4 2 4 13 0 12 -5 14 -9 7 -12z m-2965 2 c-3 -3 -12
-4 -19 -1 -8 3 -5 6 6 6 11 1 17 -2 13 -5z m50 -18 c0 -8 -6 -12 -15 -9 -11 5
-11 7 0 14 7 5 13 9 14 9 0 0 1 -6 1 -14z m158 -15 c3 -5 2 -12 -3 -15 -5 -3
-9 1 -9 9 0 17 3 19 12 6z m2589 1 c3 -5 -1 -9 -9 -9 -8 0 -12 4 -9 9 3 4 7 8
9 8 2 0 6 -4 9 -8z m366 -9 c0 -3 -7 -3 -15 1 -8 3 -19 -2 -24 -12 -6 -9 -11
-12 -11 -6 0 16 21 33 36 27 8 -3 14 -7 14 -10z m-3073 0 c-11 -11 13 -32 30
-26 11 4 14 2 11 -8 -6 -17 -44 -18 -40 -1 1 7 -5 12 -14 10 -9 -2 -19 4 -21
12 -4 13 -3 13 6 0 9 -13 11 -13 11 3 0 9 5 17 12 17 6 0 8 -3 5 -7z m3123
-13 c0 -11 -2 -20 -4 -20 -2 0 -6 9 -9 20 -3 11 -1 20 4 20 5 0 9 -9 9 -20z
m-335 0 c3 -6 -1 -7 -9 -4 -18 7 -21 14 -7 14 6 0 13 -4 16 -10z m310 0 c3 -5
1 -10 -4 -10 -6 0 -11 5 -11 10 0 6 2 10 4 10 3 0 8 -4 11 -10z m93 -11 c9
-13 6 -21 -11 -35 l-22 -19 19 23 c20 23 20 23 -2 29 -24 6 -30 20 -8 20 7 0
18 -8 24 -18z m-330 -14 c-3 -3 -9 2 -12 12 -6 14 -5 15 5 6 7 -7 10 -15 7
-18z m-2723 5 c3 -5 1 -10 -4 -10 -6 0 -11 5 -11 10 0 6 2 10 4 10 3 0 8 -4
11 -10z m60 0 c4 -6 1 -9 -7 -8 -7 2 -13 -3 -13 -9 0 -7 4 -13 9 -12 5 0 13
-6 18 -15 13 -22 50 -3 42 22 -5 14 -4 15 5 2 9 -12 5 -20 -17 -38 -27 -22
-27 -22 -43 -3 -11 14 -19 17 -26 10 -7 -7 -13 -7 -18 1 -4 7 -1 16 6 21 8 5
10 9 5 9 -6 0 -1 7 10 15 23 18 21 17 29 5z m99 2 c2 -4 -5 -9 -17 -9 -17 -2
-19 0 -7 7 18 12 18 12 24 2z m2666 -2 c0 -5 -5 -10 -11 -10 -5 0 -7 5 -4 10
3 6 8 10 11 10 2 0 4 -4 4 -10z m105 0 c-3 -5 -12 -10 -18 -10 -7 0 -6 4 3 10
19 12 23 12 15 0z m167 -32 c-8 -8 -9 -4 -5 13 4 13 8 18 11 10 2 -7 -1 -18
-6 -23z m-3122 11 c0 -5 4 -8 8 -5 5 3 9 -1 9 -9 0 -13 -3 -13 -17 0 -9 8 -20
12 -23 8 -4 -3 -7 -1 -7 5 0 7 7 12 15 12 8 0 15 -5 15 -11z m247 -24 c0 -8
-4 -12 -9 -9 -5 3 -6 10 -3 15 9 13 12 11 12 -6z m2978 6 c3 -5 2 -12 -3 -15
-5 -3 -9 1 -9 9 0 17 3 19 12 6z m205 -57 c0 -8 -19 -13 -24 -6 -3 5 1 9 9 9
8 0 15 -2 15 -3z m-2905 -44 c4 -6 1 -9 -7 -8 -7 2 -12 -4 -10 -13 1 -9 -4
-16 -13 -16 -14 0 -12 9 8 35 12 15 14 15 22 2z m2909 2 c3 -5 -1 -9 -9 -9 -8
0 -12 4 -9 9 3 4 7 8 9 8 2 0 6 -4 9 -8z m636 -42 c0 -4 -12 -12 -26 -19 -22
-10 -24 -14 -14 -26 7 -9 10 -18 6 -22 -3 -3 -6 -1 -6 5 0 7 -4 12 -10 12 -5
0 -9 -3 -7 -7 1 -5 -2 -10 -8 -12 -5 -2 -15 -10 -21 -18 -9 -13 -12 -13 -23 1
-16 19 -33 21 -29 4 2 -7 -1 -14 -5 -15 -4 -1 -19 -8 -32 -17 -16 -10 -26 -12
-30 -5 -5 6 -11 5 -18 -5 -8 -10 -17 -13 -26 -7 -9 6 -10 11 -2 15 15 9 14 24
-1 29 -7 2 -5 3 4 2 10 -2 21 1 24 6 3 5 11 9 17 8 27 -3 38 2 31 14 -4 6 -4
9 1 5 4 -4 14 -3 22 3 9 9 13 8 13 0 0 -6 5 -11 10 -11 6 0 10 8 8 17 -2 9 7
22 19 28 13 7 20 15 16 19 -4 4 1 4 11 0 13 -5 17 -4 12 4 -4 7 1 10 14 7 11
-2 20 1 20 7 0 7 6 6 15 -2 8 -7 15 -16 15 -20z m-3465 -1 c-4 -5 -12 -9 -18
-8 -9 0 -8 2 1 6 6 2 9 10 6 15 -4 7 -2 8 5 4 6 -4 9 -12 6 -17z m85 -3 c-7
-7 -13 -7 -20 0 -6 6 -3 10 10 10 13 0 16 -4 10 -10z m-49 -33 c-12 -20 -14
-14 -5 12 4 9 9 14 11 11 3 -2 0 -13 -6 -23z m88 24 c-2 -1 -13 -9 -24 -17
-19 -14 -19 -14 -6 3 7 9 18 17 24 17 6 0 8 -1 6 -3z m81 -1 c0 -3 -4 -8 -10
-11 -5 -3 -10 -1 -10 4 0 6 5 11 10 11 6 0 10 -2 10 -4z m3117 -11 c4 -4 2 -5
-4 -1 -7 4 -13 2 -13 -3 0 -6 -4 -11 -8 -11 -5 0 -9 6 -9 14 0 15 21 16 34 1z
m-184 -10 c-3 -9 -8 -14 -10 -11 -3 3 -2 9 2 15 9 16 15 13 8 -4z m-76 -10 c0
-8 -4 -12 -9 -9 -5 3 -6 10 -3 15 9 13 12 11 12 -6z m183 1 c0 -20 -17 -29
-26 -15 -5 8 -3 9 6 4 10 -6 12 -4 7 8 -3 10 -2 17 3 17 6 0 10 -6 10 -14z
m27 -8 c-3 -8 -6 -5 -6 6 -1 11 2 17 5 13 3 -3 4 -12 1 -19z m-2952 -8 c3 -5
1 -10 -4 -10 -6 0 -11 5 -11 10 0 6 2 10 4 10 3 0 8 -4 11 -10z m39 2 c3 -5
-1 -9 -9 -9 -8 0 -12 4 -9 9 3 4 7 8 9 8 2 0 6 -4 9 -8z m2722 -28 c-1 -8 -6
-17 -12 -21 -5 -4 -6 -4 -2 1 4 5 3 14 -2 21 -7 8 -5 12 4 12 8 0 13 -6 12
-13z m-57 -32 c-5 -13 -14 -33 -20 -45 -12 -21 -12 -21 -28 -1 -9 11 -19 21
-24 21 -4 1 -13 4 -20 7 -6 2 -1 3 13 1 14 -2 29 -4 33 -4 5 -1 6 -5 2 -10 -3
-5 -1 -12 3 -15 14 -8 34 44 23 58 -7 8 -4 12 8 12 16 0 17 -4 10 -24z m-683
-8 c1 -9 0 -13 -4 -10 -3 4 -7 14 -8 22 -1 9 0 13 4 10 3 -4 7 -14 8 -22z
m424 12 c0 -3 -4 -8 -10 -11 -5 -3 -10 -1 -10 4 0 6 5 11 10 11 6 0 10 -2 10
-4z m74 -4 c2 -4 -5 -9 -17 -9 -17 -2 -19 0 -7 7 18 12 18 12 24 2z m229 -38
c-3 -8 -8 -12 -11 -10 -3 3 -11 1 -18 -5 -19 -16 -25 5 -8 27 13 16 15 16 10
2 -3 -12 -1 -15 9 -11 11 4 12 10 4 26 -9 21 -9 21 5 4 8 -11 12 -25 9 -33z
m-508 17 c3 -5 2 -12 -3 -15 -5 -3 -9 1 -9 9 0 17 3 19 12 6z m199 -15 c-6
-16 -34 -30 -42 -21 -3 3 0 5 7 5 7 0 9 5 5 12 -4 6 -3 8 4 4 6 -3 13 -2 17 4
9 15 15 12 9 -4z m118 -8 c-18 -18 -15 -33 4 -18 12 11 18 10 32 -5 16 -18 16
-18 0 -6 -14 11 -21 11 -33 1 -24 -20 -37 -2 -18 25 10 13 20 21 22 19 3 -2
-1 -10 -7 -16z m-198 4 c2 -4 -5 -9 -17 -9 -17 -2 -19 0 -7 7 18 12 18 12 24
2z m-794 -16 c0 -3 -4 -8 -10 -11 -5 -3 -10 -1 -10 4 0 6 5 11 10 11 6 0 10
-2 10 -4z m315 -6 c3 -5 1 -10 -4 -10 -6 0 -11 5 -11 10 0 6 2 10 4 10 3 0 8
-4 11 -10z m145 6 c0 -3 -4 -8 -10 -11 -5 -3 -10 -1 -10 4 0 6 5 11 10 11 6 0
10 -2 10 -4z m120 0 c0 -2 -7 -7 -16 -10 -8 -3 -12 -2 -9 4 6 10 25 14 25 6z
m-360 -16 c0 -5 -2 -10 -4 -10 -3 0 -8 5 -11 10 -3 6 -1 10 4 10 6 0 11 -4 11
-10z m-370 -15 c19 -22 8 -25 -12 -3 -10 10 -14 18 -9 18 5 0 14 -7 21 -15z
m48 -10 c-3 -3 -9 2 -12 12 -6 14 -5 15 5 6 7 -7 10 -15 7 -18z m217 15 c3 -5
1 -10 -4 -10 -6 0 -11 5 -11 10 0 6 2 10 4 10 3 0 8 -4 11 -10z m158 -5 c-3
-9 -8 -14 -10 -11 -3 3 -2 9 2 15 9 16 15 13 8 -4z m81 0 c3 -8 1 -15 -4 -15
-6 0 -10 7 -10 15 0 8 2 15 4 15 2 0 6 -7 10 -15z m-360 -10 c-4 -8 -11 -12
-16 -9 -6 4 -5 10 3 15 19 12 19 11 13 -6z m137 -8 c-10 -9 -11 -8 -5 6 3 10
9 15 12 12 3 -3 0 -11 -7 -18z m-616 4 c-9 -8 -36 -10 -30 -2 2 4 11 8 20 8 8
0 13 -3 10 -6z m205 -1 c0 -5 -2 -10 -4 -10 -3 0 -8 5 -11 10 -3 6 -1 10 4 10
6 0 11 -4 11 -10z m60 1 c0 -4 -11 -7 -24 -7 -14 0 -23 3 -21 6 5 9 45 10 45
1z"/>
<path d="M705 4600 c-4 -6 -11 -7 -17 -4 -17 11 -59 -18 -57 -40 3 -41 -1 -57
-13 -54 -13 3 -18 -3 -18 -23 0 -8 4 -8 14 0 10 8 16 9 21 1 3 -6 12 -8 18 -4
7 3 5 -1 -4 -8 -14 -11 -14 -15 -3 -26 7 -7 10 -20 7 -30 -6 -15 -5 -15 10 -3
11 9 14 18 8 29 -5 8 -6 24 -3 35 4 15 1 19 -9 15 -12 -5 -15 4 -14 39 0 42
14 63 40 63 6 0 3 -5 -5 -10 -15 -9 -13 -11 13 -14 6 -1 10 -10 9 -21 -3 -16
-2 -17 12 -6 17 14 22 36 7 26 -16 -9 -24 15 -11 30 7 8 10 15 7 15 -3 0 -9
-5 -12 -10z"/>
<path d="M787 4588 c2 -5 14 -6 26 -3 15 4 18 3 9 -3 -10 -7 -10 -11 2 -21 10
-8 16 -8 19 -1 3 6 4 5 3 -2 -2 -7 -9 -12 -15 -10 -14 3 -15 -15 -1 -23 6 -4
2 -21 -10 -45 -23 -45 -26 -62 -7 -35 9 12 16 14 21 7 3 -6 -3 -16 -14 -22
-15 -8 -18 -15 -11 -28 4 -9 6 -23 3 -31 -3 -9 0 -11 9 -7 8 4 3 -2 -10 -13
l-23 -21 26 2 c21 2 25 7 21 25 -2 13 1 23 6 23 6 0 3 8 -6 17 -16 16 -16 17
1 30 16 11 17 17 6 33 -9 15 -10 26 -2 40 6 11 8 25 5 30 -3 5 3 13 12 19 17
9 16 11 -7 28 -25 18 -73 26 -63 11z"/>
<path d="M606 4567 c3 -10 9 -15 12 -12 3 3 0 11 -7 18 -10 9 -11 8 -5 -6z"/>
<path d="M653 4555 c0 -9 6 -14 14 -11 8 3 12 2 8 -3 -3 -5 1 -12 7 -15 7 -3
4 -4 -8 -1 -25 6 -27 -13 -3 -37 15 -14 18 -15 23 -1 3 8 3 20 -1 25 -3 7 -1
8 5 4 6 -4 22 4 34 16 13 13 26 22 31 21 4 -2 7 2 7 7 0 18 -22 10 -42 -15
-20 -26 -44 -25 -34 2 3 8 2 11 -3 8 -5 -3 -12 -1 -16 5 -9 15 -22 12 -22 -5z"/>
<path d="M776 4554 c-4 -9 -9 -14 -12 -11 -3 3 -18 -8 -32 -25 -15 -16 -36
-39 -46 -51 -19 -20 -19 -20 3 -14 12 3 27 -1 35 -9 12 -11 15 -11 20 2 8 21
8 26 -2 20 -4 -2 -14 -1 -22 4 -12 8 -10 14 13 35 16 15 27 21 27 13 1 -7 8
-1 16 15 8 15 20 27 27 27 8 0 7 -4 -3 -10 -13 -9 -13 -11 0 -21 13 -9 13 -10
-2 -6 -9 3 -19 -1 -22 -9 -5 -12 -1 -14 17 -9 12 3 18 3 12 -2 -13 -10 -17
-33 -7 -33 14 0 33 48 21 55 -5 4 -8 14 -7 23 4 22 -28 27 -36 6z"/>
<path d="M737 4498 c-10 -5 -15 -14 -11 -19 3 -6 12 -3 20 8 13 16 14 16 8 1
-6 -19 3 -23 23 -10 20 12 -19 32 -40 20z"/>
<path d="M753 4444 c-18 -25 -20 -25 -36 -9 -9 9 -17 11 -17 5 0 -6 -5 -8 -12
-4 -6 4 -8 3 -5 -3 4 -6 -5 -21 -18 -33 -14 -13 -25 -19 -25 -14 0 5 -5 1 -11
-8 -5 -9 -15 -15 -23 -12 -7 3 -13 -2 -13 -11 0 -19 6 -19 41 4 21 14 35 17
47 11 12 -7 21 -5 30 6 11 13 10 15 -2 14 -27 -4 -40 0 -34 11 4 6 14 8 22 5
8 -4 11 -2 7 5 -4 8 0 7 15 0 17 -10 22 -9 27 4 3 8 10 12 15 9 5 -3 6 3 3 13
-5 15 -4 16 5 3 8 -11 6 -18 -7 -29 -15 -12 -15 -12 6 -6 12 3 22 2 22 -3 0
-16 -13 -21 -30 -12 -13 7 -21 5 -30 -5 -9 -11 -8 -14 7 -14 56 -2 58 -3 33
-23 -13 -11 -17 -18 -9 -18 12 0 12 -2 1 -9 -11 -6 -9 -9 6 -13 26 -7 50 7 28
15 -9 4 -13 13 -10 22 3 8 11 12 18 8 6 -3 6 -1 -1 8 -16 16 -17 33 -1 23 7
-5 8 -3 3 7 -5 7 -9 27 -10 43 -2 39 -18 43 -42 10z"/>
<path d="M590 4421 c-5 -9 -12 -15 -17 -13 -4 1 -9 -10 -10 -25 -3 -36 -7 -55
-15 -69 -4 -5 -5 -19 -3 -30 2 -10 4 -21 4 -23 1 -3 6 0 13 7 8 8 8 15 -3 28
-10 12 -10 15 -1 10 8 -5 11 -3 10 6 -2 9 8 13 34 12 21 0 34 4 31 9 -3 6 -1
7 6 3 6 -4 8 -12 5 -18 -4 -6 -1 -9 6 -6 8 2 15 17 17 34 3 22 1 25 -7 14 -5
-8 -10 -12 -10 -7 0 4 -11 0 -24 -9 -19 -12 -29 -13 -43 -5 -11 6 -13 11 -5
11 7 0 11 4 8 8 -2 4 0 14 5 22 7 12 11 13 18 2 7 -11 9 -10 15 3 3 9 10 14
14 11 5 -3 8 4 7 16 -2 26 -42 32 -55 9z m36 -7 c-9 -6 -15 -13 -13 -15 1 -2
0 -3 -2 -1 -14 8 -6 28 11 28 17 0 17 -2 4 -12z m-43 -29 c-7 -21 -12 -19 -10
4 0 11 5 18 9 15 4 -3 5 -11 1 -19z"/>
<path d="M705 4360 c-4 -6 -11 -7 -17 -4 -7 4 -8 2 -4 -4 4 -7 1 -12 -6 -12
-11 0 -10 -2 0 -9 11 -7 11 -9 -2 -14 -20 -8 -20 -18 -2 -43 14 -18 15 -18 13
4 -1 12 -6 22 -12 23 -5 0 -1 4 10 8 11 5 21 13 21 20 1 6 2 16 3 22 0 5 6 7
13 3 7 -4 8 -3 4 4 -9 15 -13 15 -21 2z"/>
<path d="M728 4350 c-12 -13 -13 -20 -5 -24 9 -3 9 -5 0 -5 -19 -1 -36 -38
-21 -47 7 -5 8 -3 3 6 -5 8 -4 11 3 6 6 -3 13 -2 17 4 3 5 1 10 -6 10 -7 0
-10 3 -6 6 3 4 14 4 23 0 16 -6 15 -8 -4 -22 -12 -8 -19 -20 -16 -26 4 -7 10
-4 16 6 20 36 31 -10 14 -54 -5 -11 0 -16 15 -17 16 -2 18 1 10 11 -9 10 -5
17 14 30 14 9 25 12 25 6 0 -5 -5 -10 -11 -10 -8 0 -7 -5 1 -15 11 -13 10 -15
-6 -9 -18 5 -18 5 -2 -9 16 -13 16 -15 -8 -26 -28 -12 -24 -31 6 -28 10 1 16
5 13 10 -2 4 1 14 7 22 7 8 9 22 6 31 -4 9 -1 23 6 32 15 18 15 22 -4 33 -8 6
-19 1 -29 -13 -12 -16 -18 -18 -24 -8 -6 9 -4 11 4 5 10 -6 11 -3 2 14 -7 11
-8 21 -4 21 4 0 1 5 -9 10 -11 7 -15 19 -12 40 6 34 5 35 -18 10z"/>
<path d="M573 4306 c2 -13 18 -26 32 -26 6 0 4 4 -3 9 -11 7 -10 9 3 14 11 5
14 3 9 -5 -5 -8 -2 -9 9 -5 9 3 19 1 23 -5 4 -7 3 -8 -4 -4 -7 4 -12 2 -12 -3
0 -6 5 -11 11 -11 5 0 7 -4 4 -10 -4 -6 1 -7 11 -3 14 5 16 3 11 -11 -4 -9 -3
-15 2 -11 5 3 12 1 16 -5 3 -5 11 -10 17 -10 6 0 5 7 -3 18 -12 15 -12 16 1 5
10 -8 15 -27 14 -57 -1 -30 3 -47 12 -50 17 -6 17 -1 3 26 -6 11 -7 18 -2 15
5 -3 8 10 7 29 -2 23 0 32 8 28 7 -4 8 -3 4 5 -4 6 -11 9 -16 6 -5 -3 -12 0
-15 6 -4 5 -13 8 -20 5 -8 -3 -25 10 -39 28 -18 24 -32 33 -55 33 -16 0 -29
-5 -28 -11z"/>
<path d="M566 4258 c-26 -30 -29 -108 -4 -108 5 0 6 6 1 13 -4 6 -8 23 -8 35
-1 22 0 22 12 6 7 -10 13 -15 13 -12 0 4 3 14 6 23 4 9 3 15 -2 14 -21 -4 -26
2 -14 16 9 11 17 12 31 4 10 -5 19 -7 19 -3 0 3 9 -4 19 -17 20 -24 20 -24 18
-2 0 12 -4 20 -8 17 -4 -2 -12 3 -17 13 -13 23 -47 23 -66 1z"/>
<path d="M575 4240 c-4 -6 -3 -10 2 -9 28 5 33 -2 17 -26 -9 -14 -21 -22 -26
-19 -6 4 -9 1 -6 -6 5 -17 36 -22 60 -9 15 8 16 14 8 32 -10 19 -9 20 2 6 7
-9 20 -16 28 -16 8 0 23 -4 34 -8 16 -7 17 -6 7 13 -6 11 -16 24 -23 28 -6 4
-8 3 -5 -3 4 -6 0 -13 -8 -17 -8 -3 -17 -1 -20 5 -12 18 -64 39 -70 29z m35
-64 c-14 -14 -22 -2 -14 18 5 14 9 15 15 4 4 -7 4 -17 -1 -22z"/>
<path d="M519 4190 c0 -3 -2 -13 -4 -22 -2 -10 1 -18 5 -18 15 0 19 15 9 30
-5 8 -9 13 -10 10z"/>
<path d="M660 4182 c0 -14 29 -48 30 -34 0 7 5 10 12 6 7 -4 8 -3 4 4 -10 16
-46 35 -46 24z"/>
<path d="M746 4174 c-4 -9 -2 -22 4 -29 14 -17 -8 -26 -33 -13 -9 5 -22 6 -27
3 -5 -3 -17 6 -26 21 -15 22 -19 24 -28 12 -6 -8 -22 -14 -34 -13 -13 1 -26
-4 -29 -12 -3 -7 -10 -10 -17 -6 -6 3 -8 3 -4 -2 4 -4 3 -14 -3 -22 -6 -7 -8
-13 -4 -13 4 0 -3 -8 -15 -18 -21 -17 -22 -19 -5 -25 13 -6 16 -3 11 10 -4 10
-4 14 0 10 4 -4 14 -1 23 6 14 10 14 10 3 -5 -10 -12 -10 -18 -1 -24 7 -4 9
-3 6 3 -4 6 6 10 23 11 16 0 32 -4 35 -9 4 -5 1 -9 -5 -9 -6 0 -9 -4 -5 -10 3
-5 12 -7 21 -3 11 4 12 9 4 18 -8 9 -8 15 -1 20 6 3 16 15 22 27 9 16 8 19 -2
13 -7 -5 -10 -4 -6 2 3 5 0 10 -8 10 -18 0 -19 -9 -2 -26 10 -11 9 -12 -2 -6
-10 6 -12 4 -6 -5 5 -9 4 -11 -4 -6 -6 4 -8 12 -5 18 5 8 1 9 -10 5 -10 -4
-21 -7 -24 -7 -4 0 -1 -4 6 -9 11 -7 11 -9 -1 -14 -11 -4 -15 0 -12 14 3 16 0
19 -16 14 -20 -7 -20 -6 -3 14 13 15 22 18 36 10 14 -7 20 -6 24 6 3 8 10 15
16 15 5 0 6 -4 3 -10 -3 -6 1 -7 9 -4 14 5 21 -5 18 -28 -1 -3 6 -9 14 -12 12
-5 14 -1 10 17 -3 12 -3 16 0 9 3 -6 11 -9 16 -6 7 5 8 2 3 -6 -6 -10 -4 -10
10 -2 24 13 65 -5 65 -27 0 -13 -2 -13 -9 -2 -5 8 -11 9 -15 3 -9 -15 11 -25
28 -15 19 11 16 22 -16 57 -20 21 -24 33 -17 42 6 8 6 14 1 18 -6 3 -13 -1
-16 -10z"/>
<path d="M587 4119 c7 -7 15 -10 18 -7 3 3 -2 9 -12 12 -14 6 -15 5 -6 -5z"/>
<path d="M740 4099 c0 -6 -4 -8 -8 -5 -5 3 -21 -4 -38 -15 -16 -10 -23 -19
-16 -19 6 0 11 -5 10 -11 -2 -6 7 -13 19 -15 15 -3 24 3 28 16 4 11 11 17 17
14 7 -4 6 -9 -2 -14 -9 -6 -7 -11 8 -19 11 -6 23 -11 26 -11 12 0 0 25 -17 38
-13 10 -15 17 -7 27 8 9 6 14 -5 19 -8 3 -15 1 -15 -5z m4 -21 c-3 -5 -9 -6
-14 -3 -5 3 -11 1 -15 -5 -3 -5 -1 -10 5 -10 6 0 8 -5 4 -11 -4 -8 -9 -7 -15
2 -4 7 -4 18 1 24 11 13 42 16 34 3z"/>
<path d="M1174 4536 c11 -9 16 -16 11 -16 -5 0 0 -7 11 -16 10 -8 13 -13 7 -9
-8 4 -18 -4 -24 -19 -7 -14 -15 -24 -18 -21 -4 2 -7 -5 -7 -15 0 -10 4 -16 8
-14 4 3 8 1 8 -5 0 -5 -5 -11 -12 -13 -7 -3 -5 -7 6 -11 9 -4 15 -3 11 2 -3 5
-1 12 4 15 5 4 13 1 17 -5 8 -14 -15 -29 -34 -21 -11 4 -13 2 -6 -9 13 -21 11
-33 -8 -47 -14 -10 -16 -17 -8 -33 6 -11 8 -25 4 -32 -6 -9 -4 -9 8 0 8 7 18
10 22 6 3 -4 15 -7 25 -8 14 -1 18 4 15 19 -2 11 3 27 12 37 13 15 12 18 -11
33 -23 15 -24 19 -12 36 7 11 12 35 11 55 -2 24 0 33 8 29 6 -4 8 -3 4 4 -7
11 11 26 31 27 15 0 16 5 8 27 -4 9 -13 14 -21 11 -8 -3 -12 -8 -10 -12 3 -4
1 -13 -4 -21 -8 -13 -11 -13 -22 -1 -11 11 -11 13 1 6 10 -6 12 -4 6 5 -5 9
-4 11 3 6 8 -5 10 -1 6 9 -5 11 -10 13 -17 6 -7 -7 -17 -7 -31 0 -20 10 -20
10 -2 -5z m29 -94 c-5 -11 -7 -11 -14 0 -7 11 -9 10 -9 -1 0 -8 -3 -12 -6 -8
-9 9 3 24 20 24 8 0 12 -6 9 -15z m-3 -100 c-9 -3 -9 -6 1 -13 7 -4 10 -11 6
-16 -11 -11 -26 17 -19 35 4 11 1 13 -8 7 -9 -5 -11 -4 -6 4 6 9 11 9 23 -1
11 -9 12 -13 3 -16z m-29 -24 c1 -7 1 -17 0 -22 -1 -5 5 -6 13 -3 9 4 18 1 22
-5 4 -7 3 -8 -4 -4 -7 4 -12 2 -12 -3 0 -8 -7 -7 -20 1 -14 9 -16 14 -7 20 9
6 9 8 0 8 -7 0 -13 5 -13 10 0 15 20 12 21 -2z"/>
<path d="M3096 4555 c-3 -8 -1 -15 3 -15 5 0 11 7 15 15 3 8 1 15 -3 15 -5 0
-11 -7 -15 -15z"/>
<path d="M3353 4475 c0 -8 4 -15 9 -15 4 0 8 4 8 9 0 6 -4 12 -8 15 -5 3 -9
-1 -9 -9z"/>
<path d="M2565 4360 c-3 -5 -1 -10 4 -10 6 0 11 5 11 10 0 6 -2 10 -4 10 -3 0
-8 -4 -11 -10z"/>
<path d="M2565 4330 c-3 -5 0 -7 8 -4 9 3 17 -3 20 -17 4 -13 9 -20 12 -17 8
8 -13 48 -25 48 -5 0 -12 -4 -15 -10z"/>
<path d="M2710 4250 c0 -5 5 -10 10 -10 6 0 10 5 10 10 0 6 -4 10 -10 10 -5 0
-10 -4 -10 -10z"/>
<path d="M2710 4220 c0 -5 5 -10 10 -10 6 0 10 5 10 10 0 6 -4 10 -10 10 -5 0
-10 -4 -10 -10z"/>
<path d="M1760 4560 c6 -4 11 -10 11 -14 -4 -25 -1 -30 11 -18 16 16 28 15 28
-4 0 -11 6 -9 23 8 12 13 16 16 8 6 -9 -11 -10 -18 -3 -18 6 0 14 5 17 10 4 7
13 7 26 0 11 -6 16 -16 13 -22 -5 -8 -1 -9 10 -5 10 4 21 7 24 7 4 0 0 5 -8
11 -13 9 -13 10 0 6 8 -2 14 -9 13 -15 -3 -11 65 -7 76 4 9 9 -21 22 -37 16
-11 -4 -13 -2 -7 9 7 11 6 12 -6 3 -8 -6 -27 -10 -44 -9 -43 3 -45 4 -45 16 0
5 5 7 12 3 6 -4 8 -3 4 4 -8 13 -42 8 -62 -9 -11 -9 -15 -8 -19 4 -4 8 -18 15
-32 15 -15 0 -20 -4 -13 -8z"/>
<path d="M1725 4514 c-10 -8 -13 -14 -7 -14 7 0 12 -7 12 -15 0 -8 -5 -15 -12
-15 -6 0 -9 -2 -6 -5 8 -8 39 6 33 15 -3 4 3 14 12 21 12 10 14 10 9 2 -4 -7
-3 -13 3 -13 5 0 13 5 16 10 10 16 25 1 18 -18 -6 -15 -4 -15 15 2 12 11 22
15 22 10 0 -5 5 -2 10 6 7 11 10 11 10 2 0 -7 4 -11 9 -8 4 3 7 -6 5 -19 -1
-14 3 -25 9 -25 8 0 7 -3 -2 -9 -9 -6 -10 -11 -2 -15 17 -11 3 -26 -16 -19
-10 4 -14 2 -9 -5 3 -6 1 -14 -5 -18 -8 -4 -7 -9 2 -15 11 -8 11 -12 -4 -23
-10 -8 -19 -17 -20 -21 -3 -9 33 -28 40 -21 4 3 1 6 -5 6 -7 0 -12 5 -12 10 0
6 6 9 13 8 6 -2 11 4 9 13 -1 8 7 33 17 55 13 27 16 43 9 51 -12 15 -1 36 14
27 7 -4 8 -2 4 4 -4 7 -3 12 3 12 5 0 11 -6 14 -12 2 -7 8 -10 12 -5 12 11 -2
21 -30 22 -14 0 -25 4 -24 9 2 18 -24 23 -50 10 -23 -12 -28 -12 -38 2 -7 10
-13 11 -18 5 -4 -7 -12 -8 -23 -2 -12 6 -24 5 -37 -5z"/>
<path d="M1784 4485 c-5 -13 -9 -13 -22 -3 -11 9 -14 9 -9 1 5 -7 -3 -18 -20
-27 -27 -15 -27 -17 0 -20 6 -1 12 -10 12 -21 0 -28 15 -47 31 -41 8 3 17 -1
21 -9 3 -9 10 -12 17 -8 7 5 2 -1 -10 -12 -14 -13 -21 -29 -19 -47 l4 -27 -29
29 c-23 23 -29 26 -34 14 -8 -20 -8 -24 2 -23 4 1 16 1 27 0 17 -1 18 -3 5
-11 -8 -5 -10 -10 -5 -11 47 -7 55 -5 53 10 -2 9 -7 19 -13 23 -6 5 -3 8 6 8
9 0 20 -7 23 -16 3 -8 11 -12 17 -8 8 4 9 3 5 -5 -4 -6 -13 -8 -19 -4 -7 4 -5
-1 3 -11 8 -11 16 -14 18 -7 2 6 7 9 11 7 4 -3 8 1 8 9 0 7 -10 18 -23 24 -14
6 -21 17 -19 28 2 10 4 22 4 26 1 5 7 5 14 1 9 -6 9 -5 0 7 -10 12 -10 18 0
28 9 10 8 11 -8 6 -20 -7 -20 -7 0 9 11 9 26 14 34 11 11 -4 11 -2 3 8 -7 8
-9 16 -6 19 3 3 -6 5 -20 4 -22 -1 -58 -36 -37 -36 5 0 8 -8 7 -17 -2 -10 -7
-17 -12 -15 -5 2 -8 10 -6 19 2 10 -1 12 -10 7 -19 -12 -38 -14 -38 -4 0 5 5
12 11 15 6 5 4 12 -8 21 -16 13 -16 13 -1 8 12 -4 20 0 24 11 5 13 8 14 15 3
7 -10 12 -11 28 -1 11 7 27 10 36 7 11 -4 14 -2 9 9 -6 17 -25 17 -47 -1 -17
-14 -33 0 -22 18 3 6 4 10 0 10 -3 0 -8 -7 -11 -15z m66 -59 c0 -2 -7 -7 -16
-10 -8 -3 -12 -2 -9 4 6 10 25 14 25 6z"/>
<path d="M1779 4447 c0 -1 -2 -13 -5 -26 -4 -24 -4 -24 16 -6 11 10 20 19 20
20 0 4 -30 15 -31 12z"/>
<path d="M1710 4245 c0 -8 2 -15 4 -15 2 0 6 7 10 15 3 8 1 15 -4 15 -6 0 -10
-7 -10 -15z"/>
<path d="M3753 4275 c0 -8 4 -12 9 -9 4 3 8 9 8 15 0 5 -4 9 -8 9 -5 0 -9 -7
-9 -15z"/>
<path d="M3795 4200 c3 -5 8 -10 11 -10 2 0 4 5 4 10 0 6 -5 10 -11 10 -5 0
-7 -4 -4 -10z"/>
<path d="M3990 4540 c0 -5 5 -10 10 -10 6 0 10 5 10 10 0 6 -4 10 -10 10 -5 0
-10 -4 -10 -10z"/>
<path d="M2790 4160 c0 -5 5 -10 10 -10 6 0 10 5 10 10 0 6 -4 10 -10 10 -5 0
-10 -4 -10 -10z"/>
<path d="M2715 4510 c-2 -3 5 -6 15 -7 11 -1 22 2 24 5 3 4 -4 8 -15 8 -11 0
-22 -3 -24 -6z"/>
<path d="M2610 4400 c0 -5 5 -10 10 -10 6 0 10 5 10 10 0 6 -4 10 -10 10 -5 0
-10 -4 -10 -10z"/>
<path d="M3919 4503 c-13 -16 -12 -17 4 -4 16 13 21 21 13 21 -2 0 -10 -8 -17
-17z"/>
<path d="M3950 4482 c0 -5 7 -9 15 -9 8 0 12 4 9 9 -3 4 -9 8 -15 8 -5 0 -9
-4 -9 -8z"/>
<path d="M3996 4295 c-9 -26 -7 -32 5 -12 6 10 9 21 6 23 -2 3 -7 -2 -11 -11z"/>
<path d="M3814 4159 c-8 -14 14 -19 25 -6 8 10 7 14 -5 14 -8 0 -17 -4 -20 -8z"/>
<path d="M3851 4146 c-8 -9 -4 -12 14 -12 27 0 33 11 11 19 -8 3 -19 0 -25 -7z"/>
<path d="M4170 4151 c0 -5 5 -13 10 -16 6 -3 10 -2 10 4 0 5 -4 13 -10 16 -5
3 -10 2 -10 -4z"/>
<path d="M1666 2242 c-3 -5 1 -9 9 -9 8 0 12 4 9 9 -3 4 -7 8 -9 8 -2 0 -6 -4
-9 -8z"/>
<path d="M2101 2234 c0 -11 3 -14 6 -6 3 7 2 16 -1 19 -3 4 -6 -2 -5 -13z"/>
<path d="M1476 2218 c3 -4 11 -5 19 -1 21 7 19 12 -4 10 -11 0 -18 -5 -15 -9z"/>
<path d="M1100 2200 c-9 -6 -10 -10 -3 -10 6 0 15 5 18 10 8 12 4 12 -15 0z"/>
<path d="M1116 2181 l-20 -26 25 20 c13 11 25 21 27 21 2 1 0 4 -5 7 -4 3 -17
-7 -27 -22z"/>
<path d="M1035 2180 c-3 -5 -1 -10 4 -10 6 0 11 5 11 10 0 6 -2 10 -4 10 -3 0
-8 -4 -11 -10z"/>
<path d="M3837 1973 c-11 -11 -8 -21 9 -27 13 -5 14 -4 6 7 -7 8 -9 17 -5 20
3 4 4 7 1 7 -2 0 -8 -3 -11 -7z"/>
<path d="M4105 1926 c11 -17 21 -24 23 -16 3 8 7 9 11 2 4 -7 12 -3 20 11 13
19 12 20 -1 10 -11 -10 -17 -10 -26 -1 -7 7 -12 8 -12 4 0 -5 -8 -2 -17 5 -14
12 -13 9 2 -15z"/>
<path d="M4171 1917 c-8 -10 -7 -14 2 -14 8 0 14 6 14 14 0 7 -1 13 -2 13 -2
0 -8 -6 -14 -13z"/>
<path d="M4570 1861 c0 -6 4 -13 10 -16 6 -3 7 1 4 9 -7 18 -14 21 -14 7z"/>
<path d="M4450 1846 c0 -9 30 -14 35 -6 4 6 -3 10 -14 10 -12 0 -21 -2 -21 -4z"/>
<path d="M4757 1809 c4 -13 8 -18 11 -10 2 7 -1 18 -6 23 -8 8 -9 4 -5 -13z"/>
<path d="M4715 1811 c-3 -5 -1 -12 5 -16 5 -3 10 1 10 9 0 18 -6 21 -15 7z"/>
<path d="M4915 1770 c-7 -11 -8 -11 23 -14 27 -3 28 0 3 14 -13 7 -22 7 -26 0z"/>
<path d="M5607 1587 c-28 -14 -36 -22 -28 -30 15 -15 14 -30 -1 -21 -9 5 -9 2
1 -9 15 -18 26 -23 16 -7 -6 9 8 14 28 11 5 -1 6 3 2 9 -3 5 5 21 19 35 15 14
26 27 26 29 0 7 -29 0 -63 -17z m26 -6 c-12 -10 -20 -21 -17 -24 3 -3 1 -8 -4
-11 -5 -3 -16 2 -23 11 -8 9 -9 14 -4 11 6 -4 22 2 35 13 32 24 42 24 13 0z"/>
<path d="M5529 1533 c-1 -5 -1 -11 0 -16 1 -4 -12 -5 -29 -2 -22 4 -32 0 -40
-14 -14 -28 -12 -38 3 -16 10 12 16 14 21 7 5 -9 13 -8 30 3 12 8 25 13 27 11
3 -3 5 4 5 14 0 19 -15 29 -17 13z m-19 -29 c0 -8 -19 -13 -24 -6 -3 5 1 9 9
9 8 0 15 -2 15 -3z"/>
<path d="M4581 4804 c0 -11 3 -14 6 -6 3 7 2 16 -1 19 -3 4 -6 -2 -5 -13z"/>
<path d="M790 1960 c0 -5 5 -10 10 -10 6 0 10 5 10 10 0 6 -4 10 -10 10 -5 0
-10 -4 -10 -10z"/>
<path d="M816 1942 c-3 -4 4 -9 15 -9 23 -2 25 3 4 10 -8 4 -16 3 -19 -1z"/>
<path d="M1234 1859 c-3 -6 -1 -16 5 -22 9 -9 11 -8 6 6 -10 26 4 21 15 -5 9
-23 9 -23 9 -2 1 24 -24 40 -35 23z"/>
<path d="M1424 1794 c9 -6 14 -13 11 -16 -3 -2 2 -5 10 -5 10 0 12 4 5 12 -5
7 -7 15 -4 18 4 3 -4 5 -15 4 -19 -1 -20 -3 -7 -13z"/>
<path d="M1803 1671 l-1 -26 12 23 c12 22 27 21 22 -1 -2 -7 -1 -9 1 -4 3 4 9
7 14 7 6 0 7 -5 3 -12 -4 -6 -3 -8 3 -5 6 4 16 1 22 -7 6 -7 22 -13 35 -13 22
0 22 1 7 17 -9 9 -24 16 -33 14 -11 -2 -18 3 -18 13 0 9 -6 13 -14 10 -8 -3
-17 -3 -20 1 -16 15 -31 7 -33 -17z m102 -29 c-3 -3 -11 0 -18 7 -9 10 -8 11
6 5 10 -3 15 -9 12 -12z"/>
<path d="M5695 1641 c-3 -5 -2 -12 3 -15 5 -3 9 1 9 9 0 17 -3 19 -12 6z"/>
<path d="M5750 1585 c0 -7 30 -13 34 -7 3 4 -4 9 -15 9 -10 1 -19 0 -19 -2z"/>
<path d="M2165 1563 c-19 -13 -18 -14 9 -9 34 6 41 12 24 19 -8 2 -23 -2 -33
-10z"/>
<path d="M2220 1561 c-12 -24 -13 -34 -1 -27 9 6 22 46 15 46 -2 0 -8 -9 -14
-19z"/>
<path d="M2106 1558 c3 -5 10 -6 15 -3 13 9 11 12 -6 12 -8 0 -12 -4 -9 -9z"/>
<path d="M5710 1540 c0 -5 5 -10 10 -10 6 0 10 5 10 10 0 6 -4 10 -10 10 -5 0
-10 -4 -10 -10z"/>
<path d="M5680 1519 c0 -5 5 -7 10 -4 6 3 10 8 10 11 0 2 -4 4 -10 4 -5 0 -10
-5 -10 -11z"/>
<path d="M5795 1520 c-3 -5 -1 -10 4 -10 6 0 11 5 11 10 0 6 -2 10 -4 10 -3 0
-8 -4 -11 -10z"/>
<path d="M5735 1511 c-3 -5 -2 -12 3 -15 5 -3 9 1 9 9 0 17 -3 19 -12 6z"/>
<path d="M5606 1482 c-3 -5 1 -9 9 -9 8 0 15 4 15 9 0 4 -4 8 -9 8 -6 0 -12
-4 -15 -8z"/>
<path d="M5527 1449 c4 -13 8 -18 11 -10 2 7 -1 18 -6 23 -8 8 -9 4 -5 -13z"/>
<path d="M5650 1459 c0 -5 5 -7 10 -4 6 3 10 8 10 11 0 2 -4 4 -10 4 -5 0 -10
-5 -10 -11z"/>
<path d="M2632 1442 c-10 -10 -12 -13 -5 -8 7 5 13 5 13 0 0 -5 5 -2 10 6 9
13 10 13 10 0 0 -13 1 -13 10 0 6 10 10 11 10 3 0 -7 5 -13 12 -13 9 0 9 3 0
12 -18 18 -40 18 -60 0z"/>
<path d="M5555 1449 c-4 -6 -5 -12 -2 -15 2 -3 7 2 10 11 7 17 1 20 -8 4z"/>
<path d="M5609 1443 c-13 -16 -12 -17 4 -4 9 7 17 15 17 17 0 8 -8 3 -21 -13z"/>
<path d="M5427 1443 c-11 -11 3 -22 20 -16 12 5 14 3 8 -7 -5 -9 -4 -11 3 -6
7 4 12 9 12 11 0 8 -38 24 -43 18z"/>
<path d="M4886 1403 c-4 -5 -22 -8 -38 -8 -19 0 -33 -6 -35 -15 -4 -12 -3 -12
5 -1 8 11 10 11 14 0 4 -12 8 -12 20 -1 13 10 17 10 21 0 4 -10 6 -10 6 0 1 6
6 12 12 12 5 0 7 -5 3 -12 -4 -7 -3 -8 4 -4 14 8 16 36 4 36 -5 0 -12 -3 -16
-7z"/>
<path d="M5043 1403 c-17 -6 -17 -20 0 -20 8 0 14 6 14 14 0 7 -1 13 -1 12 -1
0 -7 -3 -13 -6z"/>
<path d="M4333 1365 c0 -8 4 -12 9 -9 4 3 8 9 8 15 0 5 -4 9 -8 9 -5 0 -9 -7
-9 -15z"/>
<path d="M3495 1360 c-2 -3 5 -7 16 -7 10 -1 19 2 19 6 0 9 -29 10 -35 1z"/>
<path d="M4630 1359 c0 -5 5 -7 10 -4 6 3 10 8 10 11 0 2 -4 4 -10 4 -5 0 -10
-5 -10 -11z"/>
</g>
</svg>
